<svg width="27" height="30" viewBox="0 0 27 30" fill="none" xmlns="http://www.w3.org/2000/svg">
<g clip-path="url(#clip0_1039_726)">
<path d="M23.2619 10.4463V11.4647C23.2619 12.687 23.6108 13.8818 24.2644 14.8987L25.8662 17.3909C27.3294 19.6671 26.2124 22.761 23.6676 23.4809C17.0107 25.3639 9.98893 25.3639 3.33192 23.4809C0.787203 22.761 -0.329772 19.6671 1.13335 17.3909L2.73518 14.8987C3.38885 13.8818 3.73766 12.687 3.73766 11.4647V10.4463C3.73766 4.85441 8.10832 0.321289 13.4998 0.321289C18.8912 0.321289 23.2619 4.85441 23.2619 10.4463Z" fill="#4D4D4D"/>
<path d="M6.61914 24.2529C7.56068 27.1533 10.2851 29.2501 13.4993 29.2501C16.7135 29.2501 19.4379 27.1533 20.3795 24.2529C15.8298 25.1068 11.1688 25.1068 6.61914 24.2529Z" fill="#4D4D4D"/>
</g>
<defs>
<clipPath id="clip0_1039_726">
<rect width="27" height="29.5714" fill="white"/>
</clipPath>
</defs>
</svg>
