<svg width="56" height="56" viewBox="0 0 56 56" fill="none" xmlns="http://www.w3.org/2000/svg">
<path d="M21.3628 14.1492L17.0534 19.8323L13.4922 47.6923L19.9891 52.378C19.9891 52.378 31.6091 52.7542 32.1691 52.5048C32.7291 52.2555 41.7897 48.318 41.7897 48.318L38.2897 19.5217L33.4816 13.7773L21.3628 14.1492Z" fill="#DCEDF6"/>
<path d="M16.3669 30.2053C16.3669 30.2053 17.1806 28.3328 22.05 27.646C24.6838 27.2741 26.1013 27.996 28.0525 27.9435C30.5725 27.8778 32.095 27.366 34.5406 28.0178C37.73 28.871 38.7581 31.146 38.7581 31.146C38.7581 31.146 40.04 35.2628 39.725 35.2628C39.41 35.2628 14.9888 38.9466 14.9888 38.9466L16.3669 30.2053Z" fill="#E0E0E0"/>
<path d="M13.8291 43.2691C13.8291 43.2691 15.1591 49.2891 28.1966 49.3591C35.9316 49.3985 37.896 47.6354 38.9285 47.0316C39.961 46.4235 41.2035 44.8135 41.2035 44.8135L40.3591 37.1966L39.5541 32.1129C39.5541 32.1129 38.1891 31.3166 36.251 31.8023C35.341 32.0298 33.2891 33.1235 31.7579 33.7666C30.2266 34.4098 28.831 35.2279 25.121 34.9785C21.7216 34.751 19.7004 32.161 18.4885 31.3035C17.2766 30.446 16.0647 30.0566 16.0647 30.0566L13.8291 43.2691Z" fill="white"/>
<path d="M30.9528 39.165C30.4935 39.165 30.1435 39.3969 30.0428 40.0007C29.9422 40.6044 30.4672 40.9413 30.8697 40.88C31.3947 40.7969 31.5566 40.2938 31.5566 39.9175C31.5566 39.5413 31.3335 39.165 30.9528 39.165Z" fill="#E0E0E0"/>
<path d="M35.5731 39.6111C35.3369 40.0705 35.6125 40.7399 36.1375 40.8405C36.6625 40.9411 37.0562 40.4993 37.0256 39.9918C36.9862 39.2874 35.9362 38.9024 35.5731 39.6111Z" fill="#E0E0E0"/>
<path d="M36.8854 43.6458C36.5704 44.0264 36.8241 44.897 37.4891 44.9189C38.1541 44.9408 38.4123 44.1795 38.0929 43.6895C37.8348 43.2826 37.2879 43.1601 36.8854 43.6458Z" fill="#E0E0E0"/>
<path d="M29.6626 46.9746C29.6626 47.4209 29.9032 47.7402 30.4501 47.7227C30.997 47.7009 31.0757 47.119 31.0363 46.8127C30.997 46.5109 30.8351 46.209 30.332 46.209C29.8288 46.209 29.6626 46.7121 29.6626 46.9746Z" fill="#E0E0E0"/>
<path d="M27.2778 43.5274C26.9541 43.1643 26.3284 43.2474 26.0047 43.6674C25.7422 44.0087 25.7597 44.9493 26.6522 44.9187C27.2603 44.8968 27.8028 44.1093 27.2778 43.5274Z" fill="#E0E0E0"/>
<path d="M17.5697 44.9357C17.2416 45.2944 17.3072 45.885 17.7097 46.1869C18.1122 46.4888 18.6591 46.3488 18.821 46.025C18.9741 45.7144 18.8604 45.1763 18.5804 44.9575C18.3004 44.7388 17.8147 44.6732 17.5697 44.9357Z" fill="#E0E0E0"/>
<path d="M43.588 48.0426C43.5093 47.4651 42.3149 43.1076 41.6236 38.4482C40.928 33.7845 39.9655 24.9557 39.8124 22.0288C39.6593 19.102 38.9462 17.8988 38.3643 17.4351C37.7868 16.9713 19.6174 15.3613 19.6174 15.3613C19.6174 15.3613 17.4518 16.582 16.6905 17.6757C16.1524 18.4457 16.0343 18.8701 15.8418 19.9901C15.6493 21.1057 15.2643 25.8088 15.1855 27.2745C15.1068 28.7401 14.3368 34.7513 13.7987 37.4507C13.2605 40.1501 12.2193 46.6251 12.1012 47.3557C11.9874 48.0863 12.2543 49.2063 12.9105 49.7051C13.5668 50.2082 19.893 53.8613 20.7024 54.0932C21.5118 54.3251 33.193 54.3907 34.1074 54.2157C35.2055 54.0013 42.4811 50.7288 43.1243 50.1295C43.4568 49.8188 43.6668 48.6201 43.588 48.0426ZM21.7962 32.9007C21.5249 36.8995 20.4355 48.8126 19.6611 49.3551C18.8868 49.902 15.0237 47.4913 14.6124 46.8088C14.2012 46.1263 15.7018 39.1263 16.1568 35.2632C16.4237 32.9882 17.3949 21.6307 17.7493 20.7601C17.9549 20.2613 19.0355 20.9526 20.0855 21.4645C21.1749 21.9938 22.238 22.3088 22.3518 22.672C22.5793 23.4026 22.0674 28.902 21.7962 32.9007ZM32.1124 50.8601C31.5655 51.0876 29.7018 51.1532 27.7899 51.1751C25.6812 51.197 23.9399 51.0132 23.218 50.3701C22.3561 49.5957 23.0168 44.3195 23.3799 39.0432C23.6555 35.0445 24.3468 23.8882 24.4649 23.267C24.6005 22.5407 26.2061 23.267 28.0261 23.267C30.1174 23.267 31.6137 22.6413 31.7055 23.4157C31.7974 24.1901 31.9286 28.8145 32.108 31.6801C32.2918 34.5457 33.0618 48.8651 33.0618 49.6351C33.0618 50.4051 32.6593 50.6326 32.1124 50.8601ZM40.9805 47.1763C40.8449 48.222 36.658 50.077 36.1637 49.6745C35.4812 49.1276 34.8905 41.7207 34.5274 37.9451C34.1643 34.1738 33.5736 23.6432 33.5736 23.0351C33.5736 22.4838 34.7024 22.3263 35.6036 21.8188C36.5443 21.2895 37.3886 20.6201 37.5286 20.852C37.7999 21.307 38.1193 27.082 38.758 33.8063C39.388 40.5395 41.1161 46.1307 40.9805 47.1763Z" fill="#A6CFD6"/>
<path d="M24.2986 14.0439L18.6373 15.8071C18.6373 15.8071 17.8586 16.3364 17.4298 16.7914C17.0623 17.1808 16.6904 17.6708 16.6904 17.6708C16.6904 17.6708 21.3279 21.4552 27.7111 21.6696C34.0942 21.8839 38.6967 17.7583 38.6967 17.7583C38.6967 17.7583 38.2592 17.1414 37.7254 16.7652C37.1917 16.3933 34.8248 15.1114 34.8248 15.1114L24.2986 14.0439Z" fill="#6CA4AE"/>
<path d="M18.4495 14.2322C18.4495 14.2322 17.6926 15.1028 18.2876 16.2622C18.9657 17.5834 21.9713 19.9415 27.7157 19.7884C34.7945 19.6003 36.8857 16.4765 37.0126 16.2622C37.2007 15.9428 37.4151 15.4615 37.4413 14.8753C37.4676 14.289 37.0695 13.939 37.0695 13.939C37.0695 13.939 38.7538 11.9615 38.8063 9.1309C38.8588 6.30028 37.4938 3.41278 32.817 2.0784C28.7745 0.923404 23.7607 1.64965 21.3851 2.39778C19.4338 3.01028 16.5726 5.0709 16.5245 8.80715C16.472 12.8672 18.4495 14.2322 18.4495 14.2322Z" fill="#AEB0B1"/>
<path d="M18.7338 6.40965C18.6113 8.38278 20.8294 9.75215 27.8775 9.87465C35.4375 10.0103 36.6931 7.52528 36.7456 6.48403C36.8113 5.24153 35.4375 2.37153 27.7725 2.31903C20.6369 2.26653 18.7994 5.31153 18.7338 6.40965Z" fill="#E0E0E0"/>
<path d="M19.3814 15.0592C19.1189 15.6761 21.477 18.4936 27.6458 18.4936C33.8145 18.4936 36.5183 15.768 35.967 15.1117C35.5951 14.6655 32.9701 17.0061 27.7639 16.8748C20.6851 16.6911 19.7576 14.1798 19.3814 15.0592Z" fill="#E0E0E0"/>
<path d="M21.4332 6.27802C21.4595 7.10489 22.3695 7.25364 23.262 7.25364C24.2638 7.25364 25.0382 6.91677 25.0513 6.31739C25.0645 5.72239 24.5482 5.16677 23.157 5.21927C21.9888 5.26739 21.4113 5.68302 21.4332 6.27802Z" fill="#5E6367"/>
<path d="M25.8603 4.06048C25.8165 4.70798 26.5384 5.14548 27.6759 5.07548C28.9622 5.00111 29.4522 4.57236 29.4653 4.01673C29.4784 3.39111 28.6253 3.02798 27.5972 3.06736C26.5647 3.11111 25.8997 3.46548 25.8603 4.06048Z" fill="#5E6367"/>
<path d="M30.2878 6.68506C30.3272 7.49881 31.3334 7.62131 32.0334 7.59068C33.3328 7.53818 33.7266 7.11818 33.7266 6.53193C33.7266 5.78818 32.8734 5.49068 32.0334 5.47318C31.1934 5.45568 30.2484 5.87568 30.2878 6.68506Z" fill="#5E6367"/>
</svg>
