<svg width="24" height="24" viewBox="0 0 24 24" fill="none" xmlns="http://www.w3.org/2000/svg">
<g clip-path="url(#clip0_288_4703)">
<path d="M-37.9 17.9996C-38 17.8996 -38 17.8996 -38 17.7996C-37.9 17.7996 -37.9 17.8996 -37.9 17.9996ZM18 2.19961H16.7V1.89961C16.7 1.49961 16.4 1.09961 15.9 1.09961C15.5 1.09961 15.1 1.39961 15.1 1.89961V2.19961H7.7V1.89961C7.7 1.49961 7.4 1.09961 6.9 1.09961C6.5 1.09961 6.1 1.39961 6.1 1.89961V2.19961H4.8C3.4 2.19961 2.3 3.29961 2.3 4.69961V17.7996C2.3 19.1996 3.4 20.2996 4.8 20.2996H7.7C8.1 20.2996 8.5 19.9996 8.5 19.4996C8.5 19.0996 8.2 18.6996 7.7 18.6996H4.8C4.2 18.6996 3.8 18.1996 3.8 17.6996V7.89961C3.8 7.59961 4.2 7.19961 4.8 7.19961H18C18.6 7.19961 19 7.59961 19 7.89961V9.69961C19 10.0996 19.3 10.4996 19.8 10.4996C20.2 10.4996 20.6 10.1996 20.6 9.69961V4.69961C20.5 3.29961 19.4 2.19961 18 2.19961ZM19 5.89961C18.7 5.79961 18.3 5.69961 18 5.69961H4.8C4.4 5.69961 4.1 5.79961 3.8 5.89961V4.69961C3.8 4.09961 4.3 3.69961 4.8 3.69961H6.1V4.19961C6.1 4.59961 6.4 4.99961 6.9 4.99961C7.3 4.99961 7.7 4.69961 7.7 4.19961V3.69961H15.2V4.19961C15.2 4.59961 15.5 4.99961 16 4.99961C16.4 4.99961 16.8 4.69961 16.8 4.19961V3.69961H18C18.6 3.69961 19 4.19961 19 4.69961V5.89961Z" fill="#708238"/>
<path d="M15.4998 10.3994C12.0998 10.3994 9.2998 13.1994 9.2998 16.5994C9.2998 19.9994 12.0998 22.7994 15.4998 22.7994C18.8998 22.7994 21.6998 19.9994 21.6998 16.5994C21.6998 13.1994 18.8998 10.3994 15.4998 10.3994ZM15.4998 21.3994C12.8998 21.3994 10.7998 19.2994 10.7998 16.6994C10.7998 14.0994 12.8998 11.9994 15.4998 11.9994C18.0998 11.9994 20.1998 14.0994 20.1998 16.6994C20.1998 19.1994 18.0998 21.3994 15.4998 21.3994Z" fill="#708238"/>
<path d="M18.8998 18.6992C18.7998 18.8992 18.4998 19.0992 18.2998 19.0992C18.1998 19.0992 17.9998 19.0992 17.8998 18.9992L14.7998 16.9992V13.9992C14.7998 13.5992 15.0998 13.1992 15.5998 13.1992C15.9998 13.1992 16.3998 13.4992 16.3998 13.9992V16.1992L18.7998 17.6992C18.9998 17.8992 19.0998 18.2992 18.8998 18.6992Z" fill="#708238"/>
</g>
<defs>
<clipPath id="clip0_288_4703">
<rect width="24" height="24" fill="white"/>
</clipPath>
</defs>
</svg>
