<svg width="24" height="24" viewBox="0 0 24 24" fill="none" xmlns="http://www.w3.org/2000/svg">
<path d="M19.0004 10.4998V8.7998H14.6004V15.1998H16.3004V13.1998H18.3004V11.4998H16.3004V10.4998H19.0004ZM11.7004 8.7998H13.4004V15.1998H11.7004V8.7998ZM8.10039 10.3998C8.50039 10.3998 9.00039 10.5998 9.30039 10.8998L10.5004 9.8998C9.90039 9.1998 9.00039 8.7998 8.10039 8.7998C6.30039 8.7998 4.90039 10.1998 4.90039 11.9998C4.90039 13.7998 6.30039 15.1998 8.10039 15.1998C9.10039 15.1998 9.90039 14.7998 10.5004 14.0998V11.5998H7.70039V12.7998H8.90039V13.3998C8.70039 13.4998 8.40039 13.5998 8.10039 13.5998C7.20039 13.5998 6.50039 12.8998 6.50039 11.9998C6.50039 11.1998 7.20039 10.3998 8.10039 10.3998Z" fill="#708238"/>
<path d="M20.5 2.01953H3.5C2.26 2.01953 1.25 3.02653 1.25 4.26653V19.7735C1.25 21.0115 2.26 22.0195 3.5 22.0195H20.5C21.74 22.0195 22.75 21.0115 22.75 19.7735V4.26653C22.75 3.02653 21.74 2.01953 20.5 2.01953ZM21.25 19.7735C21.25 20.1835 20.914 20.5195 20.5 20.5195H3.5C3.086 20.5195 2.75 20.1835 2.75 19.7735V4.26653C2.75 3.85453 3.086 3.51953 3.5 3.51953H20.5C20.914 3.51953 21.25 3.85453 21.25 4.26653V19.7735Z" fill="#708238"/>
</svg>
