<svg width="611" height="426" viewBox="0 0 611 426" fill="none" xmlns="http://www.w3.org/2000/svg">
<g clip-path="url(#clip0_224_2177)">
<path d="M161.617 41.4252L177.263 56.1747L170.084 66.288L154.098 50.1053C153.405 50.0583 152.707 49.9112 152.024 49.6513C148.308 48.2377 146.443 44.0802 147.856 40.3652C149.27 36.6502 153.427 34.7845 157.142 36.198C159.512 37.0995 161.123 39.1182 161.617 41.4252Z" fill="#FFB6B6"/>
<path d="M110.333 412.494L121.62 412.493L126.989 368.957L110.331 368.958L110.333 412.494Z" fill="#FFB6B6"/>
<path d="M109.936 424.268L144.645 424.267V423.828C144.644 416.367 138.596 410.319 131.135 410.319L124.794 405.509L112.965 410.319L109.935 410.319L109.936 424.268Z" fill="#2F2E41"/>
<path d="M136.641 400.575L147.22 404.509L167.431 365.576L151.817 359.77L136.641 400.575Z" fill="#FFB6B6"/>
<path d="M132.164 411.472L164.696 423.572L164.849 423.16C167.45 416.167 163.889 408.39 156.897 405.789L152.63 399.07L139.866 399.455L137.026 398.398L132.164 411.472Z" fill="#2F2E41"/>
<path d="M158.018 187.135L180.925 317.417L159.45 398.307L139.406 390.432L142.269 383.99L137.974 375.4L144.417 332.45L144.427 305L126.521 250.128L121.51 340.324L129.384 385.421L127.902 398.307L104.33 401.17L107.193 391.864L92.1609 346.766L95.0243 338.176L74.9808 232.948L79.9917 199.304L158.018 187.135Z" fill="#2F2E41"/>
<path d="M90.3714 58.6416H118.909L127.595 72.9583L136.901 70.8108L141.616 72.9583L162.671 77.2534L156.228 115.193L154.797 158.859L155.512 177.47C163.039 182.97 161.096 190.548 159.427 199C159.427 199 87.508 218.668 76.0546 212.386V204.269L82.8551 149.911L57.8008 88.3488C56.7015 79.9209 65.6054 77.644 73.9071 75.8217L82.4972 72.9583L90.3714 58.6416Z" fill="#708238"/>
<path d="M156.228 82.2646L162.671 77.2537L177.329 82.2646L171.977 73.6746V69.5345L163.387 67.232L162.671 60.7895L156.228 55.7364L166.778 43.5615L174.482 50.0548L179.135 50.052L185.538 56.455L208.494 87.7977C213.374 94.4613 211.97 104.005 205.109 108.605C202.471 110.373 199.301 111.614 195.599 111.614H155.008L156.228 82.2646Z" fill="#708238"/>
<path d="M107.34 54.1637C119.185 54.1637 128.787 44.5615 128.787 32.7166C128.787 20.8717 119.185 11.2695 107.34 11.2695C95.4951 11.2695 85.8929 20.8717 85.8929 32.7166C85.8929 44.5615 95.4951 54.1637 107.34 54.1637Z" fill="#FFB6B6"/>
<path d="M66.114 224.57L65.6051 203.074L77.8442 201.07L77.5737 223.816C78.0275 224.342 78.4135 224.942 78.7089 225.611C80.3151 229.246 78.6699 233.496 75.0341 235.102C71.3982 236.709 67.1486 235.063 65.5423 231.428C64.5179 229.109 64.8206 226.543 66.114 224.57Z" fill="#FFB6B6"/>
<path d="M65.7527 81.4799C60.9243 81.203 57.0204 85.3602 57.5999 90.1617L45.8869 155.426L44.0242 159.348L46.1604 161.554L46.6096 166.611L64.4434 213.711L86.7292 214.536L78.4269 116L72.6557 86.7219C71.635 83.7333 68.9057 81.6607 65.7527 81.4799Z" fill="#708238"/>
<path d="M88.3676 213.893C88.5818 229.369 81.9251 232.675 71.1875 229.437C62.1033 226.697 54.0074 223.381 54.0074 213.893C54.0074 204.405 59.5296 190.373 71.1875 195.077C81.6183 189.35 93.6002 202.921 88.3676 213.893Z" fill="#FF6584"/>
<path d="M70.5691 195.462C69.1982 192.967 69.104 189.919 70.3776 187.364C71.5121 185.088 73.7586 183.394 76.2348 182.861C77.5824 182.571 78.1582 184.64 76.8057 184.932C74.8819 185.346 73.7559 193.26 72.8334 195.008C71.841 196.889 71.4086 192.532 72.4234 194.378C73.0892 195.59 71.2354 196.675 70.5691 195.462Z" fill="#3F3D56"/>
<path d="M174.268 27.0603C174.268 36.5486 167.825 45.8423 157.088 42.6041C148.004 39.8646 136.427 41.0002 145.427 25.0002C133.427 19.0002 145.43 3.53992 157.088 8.24398C167.519 2.51729 174.268 17.572 174.268 27.0603Z" fill="#FF6584"/>
<path d="M156.469 8.62938C152.291 9.60707 154.439 10.0279 156.278 4.53095C157.085 2.11945 159.659 0.5608 162.135 0.0277899C163.483 -0.26228 164.058 1.80745 162.706 2.09859C160.782 2.51267 159.129 3.72049 158.207 5.46895C157.214 7.34995 157.309 5.69851 158.324 7.54549C158.989 8.75747 157.136 9.84227 156.469 8.62938Z" fill="#3F3D56"/>
<path d="M54.2589 408.257C52.193 408.386 51.0512 405.82 52.6142 404.324L52.7697 403.705C52.7492 403.656 52.7286 403.606 52.7079 403.557C50.6187 398.575 43.538 398.61 41.4665 403.599C39.6279 408.027 37.2871 412.463 36.7107 417.145C36.4524 419.212 36.5686 421.317 37.0272 423.345C32.7191 413.935 30.4521 403.659 30.4521 393.324C30.4521 390.728 30.5942 388.131 30.8848 385.542C31.1238 383.423 31.4532 381.317 31.8795 379.231C34.1853 367.954 39.178 357.213 46.3796 348.242C49.8416 346.349 52.7287 343.391 54.4726 339.845C55.0991 338.566 55.59 337.19 55.8225 335.789C55.4285 335.841 54.3369 329.84 54.6341 329.472C54.085 328.639 53.1023 328.225 52.5027 327.412C49.5203 323.368 45.4115 324.074 43.2664 329.569C38.6842 331.882 38.6399 335.717 41.4515 339.406C43.2403 341.753 43.4861 344.928 45.0556 347.441C44.8941 347.647 44.7261 347.848 44.5647 348.054C41.6036 351.852 39.0426 355.934 36.8836 360.223C37.4938 355.457 36.593 349.715 35.0572 346.013C33.309 341.796 30.0323 338.244 27.1468 334.598C23.6808 330.219 16.5734 332.13 15.9628 337.682C15.9569 337.735 15.9511 337.789 15.9455 337.843C16.3741 338.085 16.7939 338.341 17.2041 338.613C19.5436 340.16 18.7351 343.787 15.963 344.214L15.9003 344.224C16.0553 345.768 16.3201 347.299 16.7076 348.803C13.0058 363.119 20.9977 368.333 32.4091 368.568C32.661 368.697 32.9064 368.826 33.1584 368.949C32.0022 372.204 31.0785 375.543 30.3939 378.928C29.7804 381.918 29.354 384.941 29.1151 387.977C28.8179 391.807 28.8438 395.656 29.1668 399.48L29.1474 399.344C28.3271 395.133 26.0407 391.2 22.7208 388.474C17.7752 384.411 10.788 382.915 5.45252 379.65C2.88419 378.078 -0.406926 380.109 0.0413144 383.087L0.0631344 383.229C0.857564 383.552 1.6326 383.927 2.38184 384.347C2.81044 384.588 3.23032 384.845 3.64048 385.117C5.97997 386.664 5.17144 390.29 2.39941 390.718L2.33659 390.728C2.29139 390.734 2.25262 390.741 2.20748 390.747C3.5703 393.983 5.46916 396.987 7.84602 399.577C10.1607 412.074 20.1021 413.259 30.7362 409.62H30.7427C31.9053 414.684 33.604 419.631 35.7871 424.346H53.8073C53.8719 424.146 53.9301 423.939 53.9882 423.739C52.3218 423.843 50.6425 423.746 49.0019 423.442C50.3389 421.802 51.6759 420.148 53.0129 418.508C53.0452 418.475 53.071 418.443 53.0969 418.411C53.775 417.571 54.4597 416.738 55.1378 415.898L55.1382 415.897C55.1807 413.32 54.8711 410.75 54.2589 408.257Z" fill="#F2F2F2"/>
<path d="M255.81 424.4C255.81 425.06 255.28 425.59 254.62 425.59H1.33014C0.670167 425.59 0.140137 425.06 0.140137 424.4C0.140137 423.74 0.670167 423.21 1.33014 423.21H254.62C255.28 423.21 255.81 423.74 255.81 424.4Z" fill="#CCCCCC"/>
<path d="M508.927 39.792C508.927 38.689 508.03 37.792 506.927 37.792H475.927C474.824 37.792 473.927 38.689 473.927 39.792C473.927 40.895 474.824 41.792 475.927 41.792H506.927C508.03 41.792 508.927 40.895 508.927 39.792Z" fill="#708238"/>
<path d="M559.927 40C559.927 38.897 559.03 38 557.927 38H526.927C525.824 38 524.927 38.897 524.927 40C524.927 41.103 525.824 42 526.927 42H557.927C559.03 42 559.927 41.103 559.927 40Z" fill="#708238"/>
<path d="M610.927 40.208C610.927 39.105 610.03 38.208 608.927 38.208H577.927C576.824 38.208 575.927 39.105 575.927 40.208C575.927 41.311 576.824 42.208 577.927 42.208H608.927C610.03 42.208 610.927 41.311 610.927 40.208Z" fill="#708238"/>
<path d="M559.927 85C559.927 83.897 559.03 83 557.927 83H526.927C525.824 83 524.927 83.897 524.927 85C524.927 86.103 525.824 87 526.927 87H557.927C559.03 87 559.927 86.103 559.927 85Z" fill="#F2F2F2"/>
<path d="M457.927 85C457.927 83.897 457.03 83 455.927 83H424.927C423.824 83 422.927 83.897 422.927 85C422.927 86.103 423.824 87 424.927 87H455.927C457.03 87 457.927 86.103 457.927 85Z" fill="#F2F2F2"/>
<path d="M508.927 85.208C508.927 84.105 508.03 83.208 506.927 83.208H475.927C474.824 83.208 473.927 84.105 473.927 85.208C473.927 86.311 474.824 87.208 475.927 87.208H506.927C508.03 87.208 508.927 86.311 508.927 85.208Z" fill="#F2F2F2"/>
<path d="M559.927 131C559.927 129.897 559.03 129 557.927 129H526.927C525.824 129 524.927 129.897 524.927 131C524.927 132.103 525.824 133 526.927 133H557.927C559.03 133 559.927 132.103 559.927 131Z" fill="#F2F2F2"/>
<path d="M610.927 131.208C610.927 130.105 610.03 129.208 608.927 129.208H577.927C576.824 129.208 575.927 130.105 575.927 131.208C575.927 132.311 576.824 133.208 577.927 133.208H608.927C610.03 133.208 610.927 132.311 610.927 131.208Z" fill="#F2F2F2"/>
<path d="M406.927 130.792C406.927 129.689 406.03 128.792 404.927 128.792H373.927C372.824 128.792 371.927 129.689 371.927 130.792C371.927 131.895 372.824 132.792 373.927 132.792H404.927C406.03 132.792 406.927 131.895 406.927 130.792Z" fill="#F2F2F2"/>
<path d="M457.927 131C457.927 129.897 457.03 129 455.927 129H424.927C423.824 129 422.927 129.897 422.927 131C422.927 132.103 423.824 133 424.927 133H455.927C457.03 133 457.927 132.103 457.927 131Z" fill="#F2F2F2"/>
<path d="M508.927 131.208C508.927 130.105 508.03 129.208 506.927 129.208H475.927C474.824 129.208 473.927 130.105 473.927 131.208C473.927 132.311 474.824 133.208 475.927 133.208H506.927C508.03 133.208 508.927 132.311 508.927 131.208Z" fill="#F2F2F2"/>
<path d="M491.681 30.1631C498.564 30.1631 504.144 24.7007 504.144 17.9624C504.144 11.2242 498.564 5.76172 491.681 5.76172C484.797 5.76172 479.217 11.2242 479.217 17.9624C479.217 24.7007 484.797 30.1631 491.681 30.1631Z" fill="#F2F2F2"/>
<path d="M490.762 22.9996L490.734 22.9992C490.403 22.9899 490.097 22.817 489.919 22.5372L485.694 15.9122C485.397 15.4464 485.534 14.8283 486 14.5314C486.465 14.236 487.083 14.3712 487.381 14.837L490.811 20.2174L497.258 11.2492C497.581 10.8004 498.207 10.6994 498.654 11.0206C499.102 11.3429 499.204 11.9679 498.882 12.4161L491.574 22.5831C491.386 22.8449 491.083 22.9996 490.762 22.9996Z" fill="white"/>
<path d="M441.463 29.4014C448.347 29.4014 453.927 23.9389 453.927 17.2007C453.927 10.4624 448.347 5 441.463 5C434.58 5 429 10.4624 429 17.2007C429 23.9389 434.58 29.4014 441.463 29.4014Z" fill="#708238"/>
<path d="M440.545 22.2379L440.517 22.2374C440.185 22.2282 439.88 22.0553 439.701 21.7755L435.477 15.1505C435.18 14.6847 435.317 14.0665 435.782 13.7697C436.248 13.4743 436.866 13.6095 437.163 14.0753L440.594 19.4557L447.041 10.4874C447.364 10.0387 447.989 9.93764 448.436 10.2589C448.885 10.5812 448.987 11.2062 448.665 11.6544L441.357 21.8214C441.169 22.0831 440.866 22.2379 440.545 22.2379Z" fill="white"/>
<path d="M490.463 29.4014C497.347 29.4014 502.927 23.9389 502.927 17.2007C502.927 10.4624 497.347 5 490.463 5C483.58 5 478 10.4624 478 17.2007C478 23.9389 483.58 29.4014 490.463 29.4014Z" fill="#708238"/>
<path d="M489.545 22.2379L489.517 22.2374C489.185 22.2282 488.88 22.0553 488.701 21.7755L484.477 15.1505C484.18 14.6847 484.317 14.0665 484.782 13.7697C485.248 13.4743 485.866 13.6095 486.163 14.0753L489.594 19.4557L496.041 10.4874C496.364 10.0387 496.989 9.93764 497.436 10.2589C497.885 10.5812 497.987 11.2062 497.665 11.6544L490.357 21.8214C490.169 22.0831 489.866 22.2379 489.545 22.2379Z" fill="white"/>
<path d="M610.927 82.208C610.927 81.105 610.03 80.208 608.927 80.208H577.927C576.824 80.208 575.927 81.105 575.927 82.208C575.927 83.311 576.824 84.208 577.927 84.208H608.927C610.03 84.208 610.927 83.311 610.927 82.208Z" fill="#F2F2F2"/>
<path d="M593.681 71.1631C600.564 71.1631 606.144 65.7007 606.144 58.9624C606.144 52.2242 600.564 46.7617 593.681 46.7617C586.797 46.7617 581.217 52.2242 581.217 58.9624C581.217 65.7007 586.797 71.1631 593.681 71.1631Z" fill="#708238"/>
<path d="M592.762 63.9996L592.734 63.9992C592.403 63.9899 592.097 63.817 591.919 63.5372L587.694 56.9122C587.397 56.4464 587.534 55.8283 588 55.5314C588.465 55.236 589.083 55.3712 589.381 55.837L592.811 61.2174L599.258 52.2492C599.581 51.8004 600.207 51.6994 600.654 52.0206C601.102 52.3429 601.204 52.9679 600.882 53.4161L593.574 63.5831C593.386 63.8449 593.083 63.9996 592.762 63.9996Z" fill="white"/>
<path d="M540.463 78.4014C547.347 78.4014 552.927 72.9389 552.927 66.2007C552.927 59.4624 547.347 54 540.463 54C533.58 54 528 59.4624 528 66.2007C528 72.9389 533.58 78.4014 540.463 78.4014Z" fill="#708238"/>
<path d="M539.545 71.2379L539.517 71.2374C539.185 71.2282 538.88 71.0553 538.701 70.7755L534.477 64.1505C534.18 63.6847 534.317 63.0665 534.782 62.7697C535.248 62.4743 535.866 62.6095 536.163 63.0753L539.594 68.4557L546.041 59.4874C546.364 59.0387 546.989 58.9376 547.436 59.2589C547.885 59.5812 547.987 60.2062 547.665 60.6544L540.357 70.8214C540.169 71.0831 539.866 71.2379 539.545 71.2379Z" fill="white"/>
<path d="M490.463 78.4014C497.347 78.4014 502.927 72.9389 502.927 66.2007C502.927 59.4624 497.347 54 490.463 54C483.58 54 478 59.4624 478 66.2007C478 72.9389 483.58 78.4014 490.463 78.4014Z" fill="#708238"/>
<path d="M489.545 71.2379L489.517 71.2374C489.185 71.2282 488.88 71.0553 488.701 70.7755L484.477 64.1505C484.18 63.6847 484.317 63.0665 484.782 62.7697C485.248 62.4743 485.866 62.6095 486.163 63.0753L489.594 68.4557L496.041 59.4874C496.364 59.0387 496.989 58.9376 497.436 59.2589C497.885 59.5812 497.987 60.2062 497.665 60.6544L490.357 70.8214C490.169 71.0831 489.866 71.2379 489.545 71.2379Z" fill="white"/>
<path d="M440.681 78.4014C447.564 78.4014 453.144 72.9389 453.144 66.2007C453.144 59.4624 447.564 54 440.681 54C433.797 54 428.217 59.4624 428.217 66.2007C428.217 72.9389 433.797 78.4014 440.681 78.4014Z" fill="#708238"/>
<path d="M439.762 71.2379L439.734 71.2374C439.403 71.2282 439.097 71.0553 438.919 70.7755L434.694 64.1505C434.397 63.6847 434.534 63.0665 435 62.7697C435.465 62.4743 436.083 62.6095 436.381 63.0753L439.811 68.4557L446.258 59.4874C446.581 59.0387 447.207 58.9376 447.654 59.2589C448.102 59.5812 448.204 60.2062 447.882 60.6544L440.574 70.8214C440.386 71.0831 440.083 71.2379 439.762 71.2379Z" fill="white"/>
<path d="M434.56 84.7262C434.56 82.3857 432.657 80.4824 430.316 80.4824H364.537C362.197 80.4824 360.294 82.3857 360.294 84.7262C360.294 87.0667 362.197 88.97 364.537 88.97H430.316C432.657 88.97 434.56 87.0667 434.56 84.7262Z" fill="#3F3D56"/>
<path d="M397.965 69.7773C412.571 69.7773 424.411 58.1865 424.411 43.8886C424.411 29.5907 412.571 18 397.965 18C383.36 18 371.519 29.5907 371.519 43.8886C371.519 58.1865 383.36 69.7773 397.965 69.7773Z" fill="#708238"/>
<path d="M396.016 54.5781C395.996 54.5781 395.976 54.5781 395.957 54.5771C395.253 54.5574 394.605 54.1906 394.226 53.5969L385.262 39.5394C384.632 38.5509 384.922 37.2392 385.911 36.6093C386.898 35.9825 388.21 36.2695 388.841 37.2579L396.12 48.6745L409.8 29.6447C410.486 28.6926 411.813 28.4781 412.761 29.1599C413.713 29.8437 413.93 31.1699 413.246 32.121L397.739 53.6943C397.34 54.2497 396.697 54.5781 396.016 54.5781Z" fill="white"/>
<path d="M125.253 15.5249C126.553 16.1649 127.773 16.9649 128.873 17.8849C129.193 18.1549 126.163 18.515 126.463 18.795C124.313 22.255 133.273 26.5849 129.463 26.795C128.703 25.1749 116.973 21.3849 115.703 20.1349C115.883 21.5749 120.633 23.365 120.463 24.795C116.193 24.5249 106.673 22.9249 101.463 20.795C104.602 27.0501 104.626 31.9665 97.4634 33.7949C92.1027 33.7949 88.3601 39.1057 90.1631 44.1541L91.4634 47.7949L86.4634 42.7949C84.384 40.7155 80.3567 35.7961 79.0312 30.5439C78.0792 26.7719 78.8547 22.8195 80.8361 19.4716C80.9093 19.3479 80.9756 19.2285 81.0334 19.115C79.9034 19.6349 78.7234 20.0349 77.5134 20.305C77.4634 18.1249 85.9234 14.085 86.4634 12.7949C88.9734 6.78493 85.3134 6.79494 95.4634 6.79494C96.3384 6.21161 98.0962 7.20813 100.463 6.79494C104.82 6.03454 106.621 3.06163 112.03 4.19835C116.697 5.17931 121.239 6.61816 124.762 8.08597L126.463 8.79494C127.493 10.4449 127.913 11.9849 127.853 13.3849C127.763 13.3649 127.663 13.3449 127.573 13.3349C125.803 13.0849 126.993 15.1449 125.253 15.5249Z" fill="#2F2E41"/>
</g>
<defs>
<clipPath id="clip0_224_2177">
<rect width="610.927" height="425.59" fill="white"/>
</clipPath>
</defs>
</svg>
