<svg width="646" height="324" viewBox="0 0 646 324" fill="none" xmlns="http://www.w3.org/2000/svg">
<g clip-path="url(#clip0_284_3200)">
<path d="M212.741 324C193.248 324 173.785 323.651 154.35 322.953C126.581 321.955 97.8666 320.923 71.1773 306.113C52.507 295.754 35.9715 279.133 23.359 258.047C14.929 243.755 8.74776 228.25 5.03239 212.076C-1.8982 182.63 -1.66214 151.949 5.72074 122.613C8.30798 112.555 11.8747 102.775 16.3696 93.4137C35.833 53.0885 71.3329 26.0193 113.767 19.1474C114.117 19.1019 114.472 19.0943 114.824 19.1248C115.015 19.1351 115.205 19.146 115.399 19.1379L115.649 19.0585C116.289 18.8359 116.946 18.6671 117.614 18.5538C183.059 8.8061 252.243 28.5292 317.683 75.5893C368.281 111.981 435.337 131.577 522.684 135.498L523.924 135.563C548.24 136.961 571.76 146.99 591.945 164.569C611.869 181.92 626.828 205.069 635.205 231.514C636.235 234.739 637.179 238.095 638.011 241.489C638.786 244.644 638.731 247.945 637.852 251.072C636.974 254.199 635.301 257.046 632.997 259.334V259.341L632.779 259.564C632.256 260.085 631.705 260.585 631.141 261.05L630.479 261.596C624.897 266.197 620.488 269.831 615.212 272.654C611.692 274.523 607.95 275.937 604.073 276.861C582.788 282.053 561.172 286.867 539.826 291.169C498.372 299.532 455.826 306.431 413.368 311.673C346.808 319.884 279.806 324.001 212.741 324ZM114.328 20.5531C114.197 20.5518 114.067 20.5607 113.938 20.5795C71.9006 27.3872 36.7368 54.1906 17.4663 94.1167C13.0157 103.386 9.48434 113.069 6.92282 123.027C-0.392776 152.103 -0.625904 182.511 6.24304 211.696C9.92204 227.714 16.0433 243.071 24.392 257.227C36.881 278.106 53.2474 294.56 71.7219 304.81C98.1717 319.488 126.751 320.515 154.39 321.507C240.833 324.597 327.386 320.828 413.235 310.236C455.664 304.997 498.183 298.103 539.61 289.745C560.941 285.446 582.542 280.636 603.813 275.447C607.596 274.546 611.249 273.167 614.683 271.342C619.854 268.577 624.22 264.977 629.749 260.421L630.411 259.875C630.895 259.475 631.371 259.047 631.826 258.602L631.956 258.465C636.5 253.884 638.266 247.839 636.804 241.882V241.881C635.98 238.523 635.046 235.203 634.027 232.012C616.913 177.989 572.642 139.81 523.864 137.007L522.631 136.942C482.732 135.151 447.817 130.189 415.896 121.771C377.79 111.723 344.523 96.5977 317.018 76.8153C251.828 29.9355 182.933 10.2858 117.774 19.9873C117.165 20.0924 116.566 20.2477 115.983 20.4518L115.533 20.5778C115.278 20.5892 115.022 20.5861 114.766 20.5686C114.616 20.5608 114.47 20.5531 114.328 20.5531Z" fill="#F0F0F0"/>
<path d="M201.784 105.563C199.98 103.831 198.134 94.1712 195.83 93.1906C197.552 96.9985 196.302 98.0067 196.293 102.186C196.314 104.559 196.037 106.925 195.468 109.229H156.441V78.7561C156.441 76.018 156.98 73.3068 158.028 70.7771C159.075 68.2475 160.61 65.9489 162.545 64.0128C164.48 62.0767 166.777 60.5409 169.306 59.4932C171.834 58.4454 174.544 57.9062 177.281 57.9063C178.325 57.9266 179.363 58.0786 180.37 58.3587C183.724 59.2648 186.781 61.0375 189.235 63.4991C191.688 65.9606 193.452 69.0243 194.348 72.383C197.324 83.2631 202.055 101.374 201.784 105.563Z" fill="#2F2E41"/>
<path d="M158.731 143.051L158.75 119.299L144.795 120.546L149.72 135.527L147.415 173.18C146.298 173.431 145.277 174.002 144.478 174.823C143.678 175.645 143.135 176.681 142.915 177.806C142.694 178.931 142.805 180.095 143.235 181.158C143.664 182.221 144.394 183.135 145.334 183.791C146.274 184.446 147.384 184.813 148.529 184.848C149.675 184.882 150.805 184.583 151.783 183.986C152.761 183.389 153.545 182.52 154.038 181.485C154.531 180.451 154.712 179.295 154.56 178.159L158.731 143.051Z" fill="#FFB6B6"/>
<path d="M186.194 312.782L191.832 312.781L194.514 291.024H186.193L186.194 312.782Z" fill="#FFB6B6"/>
<path d="M184.285 309.998L193.197 309.466V313.286L201.67 319.141C202.089 319.43 202.404 319.845 202.57 320.326C202.736 320.807 202.743 321.329 202.592 321.815C202.441 322.301 202.138 322.725 201.728 323.027C201.319 323.328 200.823 323.491 200.315 323.491H189.705L187.876 319.712L187.162 323.491H183.161L184.285 309.998Z" fill="#2F2E41"/>
<path d="M153.595 312.782L159.234 312.781L161.915 291.024H153.595L153.595 312.782Z" fill="#FFB6B6"/>
<path d="M151.686 309.998L160.598 309.466V313.286L169.072 319.141C169.49 319.43 169.805 319.845 169.971 320.326C170.137 320.807 170.145 321.329 169.993 321.815C169.842 322.301 169.54 322.725 169.13 323.027C168.72 323.328 168.225 323.491 167.716 323.491H157.106L155.277 319.712L154.563 323.491H150.562L151.686 309.998Z" fill="#2F2E41"/>
<path d="M181.174 93.6484L169.495 93.8776L161.25 102.584L154.641 103.554C151.651 103.993 148.903 105.445 146.854 107.668C144.806 109.891 143.583 112.749 143.388 115.767L144.533 122.059H151.403L155.378 145.406C153.832 149.346 153.727 152.456 156.899 153.678L166.746 172.236L195.83 159.177C197.305 156.64 197.778 154.091 196.27 151.613L198.349 115.873H205.34C205.34 109.188 203.08 103.553 196.44 102.809C193.803 102.524 191.154 102.372 188.502 102.355L181.174 93.6484Z" fill="#E6E6E6"/>
<path d="M195.83 159.177C195.83 159.177 167.433 164.217 156.899 153.678C156.899 153.678 155.83 155.494 154.218 158.507C153.755 159.373 152.86 159.96 152.319 161.01C151.828 161.963 150.564 163.136 150.029 164.218C149.598 165.088 150.289 166.225 149.841 167.165C144.446 178.486 138.144 194.455 139.495 205C140.366 211.801 142.166 227.624 144.061 244.619C144.21 245.947 143.01 247.653 143.159 248.991C143.299 250.253 144.788 251.148 144.928 252.413C145.022 253.253 143.982 254.11 144.075 254.948C144.177 255.869 145.412 256.771 145.513 257.688C148.11 281.155 150.487 303.063 150.487 303.063H163.769L166.275 253.026L164.227 234.786L169.036 197.898L175.677 232.953L176.532 252.682L183.55 303.98H195.83V254.321L196.746 251.741L195.83 248.432L196.746 244.867L195.83 240.985V159.177Z" fill="#2F2E41"/>
<path d="M184.759 86.8725C182.949 89.277 180.376 90.9933 177.461 91.7389C174.547 92.4844 171.466 92.2147 168.725 90.9741C165.984 89.7336 163.748 87.5962 162.383 84.9139C161.019 82.2316 160.608 79.1645 161.219 76.2175C161.83 73.2705 163.425 70.6195 165.743 68.701C168.061 66.7825 170.962 65.711 173.97 65.6628C176.978 65.6147 179.912 66.5928 182.29 68.4361C184.668 70.2794 186.348 72.878 187.052 75.8039C187.09 75.9626 187.122 76.1205 187.154 76.2844C187.526 78.1183 187.505 80.0104 187.092 81.8356C186.679 83.6608 185.884 85.3776 184.759 86.8725Z" fill="#FFB6B6"/>
<path d="M181.998 79.3156C181.717 77.9054 181.007 76.6168 179.965 75.6268C180.067 76.9782 179.88 78.3359 179.415 79.6089C175.933 79.9174 172.436 79.2242 169.334 77.611C166.998 76.0255 164.026 76.1629 160.563 77.611C160.563 75.926 160.895 74.2574 161.539 72.7006C162.184 71.1438 163.128 69.7293 164.319 68.5378C165.51 67.3464 166.924 66.4013 168.48 65.7565C170.036 65.1118 171.704 64.7801 173.388 64.7803H175.678C179.079 64.7809 182.34 66.1329 184.745 68.539C187.15 70.9451 188.501 74.2083 188.502 77.611C186.388 78.3694 184.212 78.9398 181.998 79.3156Z" fill="#2F2E41"/>
<path d="M81.8103 242.847C102.158 242.847 118.652 226.344 118.652 205.987C118.652 185.629 102.158 169.126 81.8103 169.126C61.463 169.126 44.9683 185.629 44.9683 205.987C44.9683 226.344 61.463 242.847 81.8103 242.847Z" fill="#F0F0F0"/>
<path d="M316.588 73.7214C336.936 73.7214 353.43 57.2183 353.43 36.8607C353.43 16.5031 336.936 0 316.588 0C296.241 0 279.746 16.5031 279.746 36.8607C279.746 57.2183 296.241 73.7214 316.588 73.7214Z" fill="#F0F0F0"/>
<path d="M609.158 248.629C629.505 248.629 646 232.126 646 211.768C646 191.41 629.505 174.907 609.158 174.907C588.811 174.907 572.316 191.41 572.316 211.768C572.316 232.126 588.811 248.629 609.158 248.629Z" fill="#F0F0F0"/>
<path d="M383.049 40.8802V124.464C383.049 126.201 382.364 127.867 381.144 129.101C379.923 130.335 378.265 131.037 376.53 131.055C376.506 131.058 376.482 131.059 376.458 131.058H366.735C358.955 131.058 351.494 127.966 345.993 122.462C340.491 116.958 337.401 109.493 337.401 101.71V40.8801C337.401 39.1313 338.095 37.4541 339.331 36.2175C340.567 34.9809 342.244 34.2861 343.992 34.2861H347.931C346.106 39.6133 370.879 41.8561 372.239 34.2861H376.458C378.206 34.2861 379.882 34.9809 381.118 36.2175C382.354 37.4541 383.049 39.1313 383.049 40.8802Z" fill="#708238"/>
<path d="M354.194 28.036C354.195 27.8069 354.286 27.5873 354.448 27.4253C354.61 27.2633 354.829 27.1721 355.058 27.1719H360.931C361.16 27.1725 361.379 27.2639 361.541 27.4259C361.702 27.5879 361.793 27.8073 361.793 28.036C361.793 28.2648 361.702 28.4842 361.541 28.6462C361.379 28.8082 361.16 28.8995 360.931 28.9002H355.058C354.829 28.8999 354.61 28.8088 354.448 28.6468C354.286 28.4848 354.195 28.2651 354.194 28.036Z" fill="#3F3D56"/>
<path d="M378.476 141.661H341.333C338.452 141.658 335.689 140.511 333.651 138.473C331.613 136.434 330.467 133.67 330.464 130.787V72.3578C330.26 72.2113 330.094 72.0182 329.979 71.7947C329.865 71.5711 329.805 71.3234 329.806 71.0722V65.1959C329.805 64.9447 329.865 64.6971 329.979 64.4736C330.094 64.2501 330.26 64.0571 330.464 63.9106V62.3335C330.26 62.187 330.094 61.994 329.979 61.7705C329.865 61.5469 329.805 61.2993 329.806 61.0482V55.1715C329.805 54.9203 329.865 54.6727 329.979 54.4492C330.094 54.2257 330.26 54.0327 330.464 53.8862V51.0358C330.212 50.9004 330.002 50.6992 329.855 50.4535C329.709 50.2079 329.632 49.927 329.633 49.641V43.7648C329.632 43.4787 329.709 43.1978 329.855 42.9521C330.002 42.7064 330.212 42.5051 330.464 42.3697V34.5591C330.467 31.6759 331.613 28.9119 333.651 26.8732C335.689 24.8345 338.452 23.6878 341.333 23.6846H378.476C381.357 23.6878 384.12 24.8346 386.158 26.8732C388.195 28.9119 389.342 31.676 389.345 34.5591V51.5845C389.541 51.707 389.702 51.8773 389.814 52.0794C389.926 52.2814 389.985 52.5086 389.985 52.7396V63.9445C389.985 64.1755 389.926 64.4028 389.814 64.6049C389.702 64.807 389.541 64.9773 389.345 65.0999V130.787C389.342 133.67 388.195 136.434 386.158 138.472C384.12 140.511 381.357 141.658 378.476 141.661ZM341.333 25.1301C338.835 25.1329 336.439 26.1272 334.672 27.8949C332.905 29.6625 331.911 32.0592 331.909 34.5591V43.5993L331.214 43.6261C331.178 43.6274 331.143 43.6425 331.118 43.6683C331.093 43.6941 331.078 43.7286 331.078 43.7648V49.641C331.078 49.6771 331.093 49.7116 331.118 49.7374C331.143 49.7632 331.178 49.7783 331.214 49.7797L331.909 49.8062V54.9011L331.359 55.0366C331.329 55.044 331.301 55.0612 331.282 55.0856C331.262 55.11 331.251 55.1402 331.25 55.1715V61.0481C331.251 61.0794 331.262 61.1096 331.282 61.134C331.301 61.1584 331.329 61.1756 331.359 61.1829L331.909 61.3185V64.9255L331.359 65.061C331.329 65.0684 331.301 65.0856 331.282 65.11C331.262 65.1344 331.251 65.1646 331.25 65.1959V71.0722C331.251 71.1035 331.262 71.1338 331.282 71.1582C331.301 71.1827 331.329 71.1999 331.359 71.2073L331.909 71.3428V130.787C331.911 133.287 332.905 135.683 334.672 137.451C336.439 139.219 338.835 140.213 341.333 140.216H378.476C380.974 140.213 383.37 139.218 385.137 137.451C386.903 135.683 387.897 133.286 387.9 130.787V63.8622H388.54V52.8222H387.9V34.5591C387.897 32.0592 386.903 29.6626 385.137 27.8949C383.37 26.1272 380.974 25.1329 378.476 25.1301L341.333 25.1301Z" fill="#3F3D56"/>
<path d="M364.213 28.9002C364.69 28.9002 365.077 28.5133 365.077 28.036C365.077 27.5588 364.69 27.1719 364.213 27.1719C363.736 27.1719 363.35 27.5588 363.35 28.036C363.35 28.5133 363.736 28.9002 364.213 28.9002Z" fill="#3F3D56"/>
<path d="M176.322 195.437H79.6751C78.3026 195.433 76.9873 194.886 76.0168 193.915C75.0462 192.944 74.4993 191.628 74.4956 190.255V143.139C74.4991 141.766 75.0459 140.45 76.0163 139.479C76.9867 138.508 78.3019 137.961 79.6744 137.957H176.321C177.694 137.961 179.009 138.508 179.98 139.478C180.95 140.449 181.497 141.765 181.501 143.138V190.254C181.497 191.628 180.951 192.944 179.98 193.915C179.01 194.886 177.695 195.433 176.322 195.437Z" fill="white"/>
<path d="M176.322 195.437H79.6751C78.3026 195.433 76.9873 194.886 76.0168 193.915C75.0462 192.944 74.4993 191.628 74.4956 190.255V143.139C74.4991 141.766 75.0459 140.45 76.0163 139.479C76.9867 138.508 78.3019 137.961 79.6744 137.957H176.321C177.694 137.961 179.009 138.508 179.98 139.478C180.95 140.449 181.497 141.765 181.501 143.138V190.254C181.497 191.628 180.951 192.944 179.98 193.915C179.01 194.886 177.695 195.433 176.322 195.437ZM79.6751 139.403C78.6854 139.405 77.737 139.8 77.0372 140.5C76.3375 141.201 75.9431 142.15 75.9404 143.14V190.254C75.9433 191.245 76.3377 192.193 77.0377 192.894C77.7376 193.594 78.6861 193.988 79.6758 193.991H176.321C177.311 193.988 178.259 193.594 178.959 192.893C179.659 192.193 180.053 191.244 180.056 190.254V143.139C180.053 142.149 179.659 141.2 178.959 140.5C178.259 139.8 177.31 139.405 176.321 139.403L79.6751 139.403Z" fill="#3F3D56"/>
<path d="M133.178 188.474C114.117 188.474 94.242 188.291 86.8263 188.173C85.8506 188.153 84.9215 187.752 84.2372 187.056C83.553 186.36 83.1678 185.424 83.1641 184.447V145.446C83.1644 145.096 83.3032 144.761 83.55 144.513C83.7968 144.266 84.1315 144.126 84.481 144.125H171.512C171.861 144.125 172.196 144.264 172.444 144.511C172.691 144.758 172.831 145.093 172.832 145.442V171.904C172.816 176.224 171.108 180.365 168.075 183.439C165.042 186.513 160.926 188.276 156.609 188.348C149.698 188.438 141.514 188.474 133.178 188.474Z" fill="#708238"/>
<path d="M166.346 169.473H87.7069C87.0484 169.471 86.4065 169.266 85.8683 168.887C85.3301 168.507 84.9218 167.971 84.6988 167.351L75.798 142.368C75.6265 141.886 75.573 141.37 75.6421 140.863C75.7112 140.357 75.9009 139.874 76.1951 139.455C76.4894 139.037 76.8797 138.696 77.3332 138.46C77.7868 138.224 78.2903 138.1 78.8015 138.099L177.099 137.962C177.567 137.961 178.028 138.063 178.452 138.261C178.875 138.458 179.251 138.746 179.551 139.104C179.851 139.463 180.069 139.882 180.19 140.334C180.31 140.786 180.33 141.258 180.248 141.719L180.324 141.751L180.042 142.41L180.039 142.416L169.279 167.536C169.034 168.111 168.625 168.601 168.104 168.946C167.582 169.29 166.971 169.473 166.346 169.473ZM177.104 139.407L78.8043 139.544C78.5243 139.545 78.2484 139.613 77.9999 139.742C77.7515 139.871 77.5377 140.058 77.3765 140.287C77.2152 140.516 77.1113 140.781 77.0735 141.058C77.0356 141.336 77.0649 141.619 77.1588 141.883L86.0593 166.865C86.1816 167.204 86.4055 167.498 86.7004 167.706C86.9954 167.914 87.3471 168.026 87.708 168.027H166.346C166.688 168.028 167.023 167.927 167.308 167.739C167.593 167.55 167.817 167.282 167.951 166.967L178.712 141.847C178.826 141.581 178.872 141.29 178.846 141.002C178.82 140.713 178.723 140.436 178.564 140.194C178.405 139.952 178.188 139.754 177.933 139.617C177.678 139.479 177.393 139.407 177.104 139.407Z" fill="#3F3D56"/>
<path d="M127.852 174.91C131.252 174.91 134.009 172.152 134.009 168.75C134.009 165.347 131.252 162.589 127.852 162.589C124.451 162.589 121.694 165.347 121.694 168.75C121.694 172.152 124.451 174.91 127.852 174.91Z" fill="white"/>
<path d="M360.462 121.426C363.863 121.426 366.62 118.668 366.62 115.265C366.62 111.863 363.863 109.104 360.462 109.104C357.062 109.104 354.305 111.863 354.305 115.265C354.305 118.668 357.062 121.426 360.462 121.426Z" fill="white"/>
<path d="M593.359 204.627L576.91 188.38C576.11 187.583 575.16 186.951 574.115 186.522C573.07 186.093 571.95 185.874 570.821 185.879H570.763C569.625 185.882 568.498 186.111 567.449 186.553C566.4 186.995 565.449 187.64 564.651 188.452C560.973 192.176 558.882 197.182 558.816 202.417C558.75 207.652 560.715 212.708 564.297 216.524C564.471 216.712 564.651 216.893 564.832 217.073C565.832 218.068 566.937 218.953 568.126 219.711C571.378 221.813 575.17 222.926 579.041 222.913H579.164C581.822 222.904 584.451 222.368 586.9 221.336C589.349 220.304 591.569 218.796 593.432 216.9C595.046 215.261 595.945 213.049 595.931 210.749C595.917 208.448 594.993 206.247 593.359 204.627ZM592.406 215.881C589.352 218.959 585.331 220.89 581.02 221.348C576.709 221.806 572.372 220.763 568.74 218.396C567.701 217.708 566.731 216.921 565.843 216.047C562.299 212.545 560.29 207.777 560.259 202.793C560.228 197.81 562.177 193.017 565.677 189.471C566.342 188.793 567.136 188.254 568.012 187.885C568.887 187.517 569.827 187.326 570.777 187.324H570.821C571.761 187.321 572.693 187.503 573.563 187.86C574.433 188.218 575.225 188.743 575.892 189.406L592.341 205.661C593.702 207.008 594.474 208.841 594.486 210.757C594.498 212.673 593.75 214.516 592.406 215.881Z" fill="#3F3D56"/>
<path d="M539.389 151.303L522.94 135.048C521.321 133.44 519.131 132.541 516.85 132.547H516.8C515.66 132.551 514.533 132.782 513.482 133.225C512.432 133.668 511.48 134.314 510.681 135.127C507.641 138.217 505.669 142.199 505.055 146.492C504.442 150.784 505.218 155.16 507.271 158.978L507.279 158.985C508.126 160.547 509.178 161.989 510.407 163.271C510.544 163.43 510.703 163.589 510.862 163.748C514.639 167.5 519.749 169.6 525.071 169.588H525.201C527.859 169.577 530.488 169.039 532.937 168.006C535.386 166.973 537.606 165.464 539.469 163.568C540.268 162.757 540.901 161.797 541.33 160.742C541.758 159.687 541.975 158.558 541.968 157.419C541.961 156.28 541.729 155.153 541.287 154.104C540.844 153.054 540.199 152.103 539.389 151.303ZM538.436 162.556C536.706 164.316 534.646 165.716 532.373 166.674C530.101 167.633 527.661 168.132 525.194 168.143H525.071C521.367 168.141 517.746 167.044 514.663 164.989C511.581 162.934 509.174 160.013 507.747 156.593C506.319 153.173 505.934 149.408 506.64 145.769C507.346 142.131 509.111 138.783 511.714 136.146C513.061 134.784 514.893 134.012 516.808 134C518.723 133.988 520.565 134.736 521.929 136.081L538.378 152.329C539.739 153.679 540.509 155.513 540.52 157.43C540.53 159.348 539.781 161.191 538.436 162.556Z" fill="#3F3D56"/>
<path d="M594.41 209.736L576.276 191.816C575.087 190.643 573.481 189.991 571.812 190.001C570.142 190.011 568.545 190.684 567.371 191.871C565.901 193.356 564.739 195.116 563.95 197.051C563.161 198.986 562.761 201.057 562.773 203.147C562.785 205.237 563.208 207.303 564.019 209.229C564.83 211.155 566.012 212.902 567.498 214.37C568.984 215.839 570.744 217 572.679 217.787C574.614 218.574 576.685 218.972 578.773 218.958C580.862 218.943 582.927 218.518 584.851 217.704C586.775 216.891 588.519 215.706 589.985 214.218L594.41 209.736Z" fill="#708238"/>
<path d="M540.444 156.407L522.309 138.488C521.12 137.315 519.515 136.663 517.845 136.673C516.176 136.683 514.578 137.356 513.404 138.543C511.935 140.028 510.772 141.788 509.983 143.723C509.195 145.658 508.795 147.729 508.806 149.819C508.818 151.908 509.242 153.975 510.052 155.901C510.863 157.827 512.045 159.574 513.531 161.042C515.017 162.51 516.778 163.671 518.712 164.459C520.647 165.246 522.718 165.644 524.806 165.629C526.895 165.615 528.96 165.189 530.884 164.376C532.808 163.563 534.553 162.378 536.019 160.89L540.444 156.407Z" fill="#708238"/>
<path d="M574.483 220.897L574.049 222.039C572.012 221.266 570.038 220.49 568.126 219.712C534.26 205.885 518.093 189.703 507.278 158.985L507.271 158.978C506.758 157.533 506.26 156.053 505.776 154.54L506.917 154.172C507.299 155.627 507.857 157.03 508.579 158.349C509.171 160.033 509.78 161.674 510.406 163.271C520.571 189.197 535.56 204.013 564.297 216.524C565.742 217.153 567.223 217.777 568.74 218.396C570.501 219.545 572.442 220.39 574.483 220.897Z" fill="#3F3D56"/>
<path d="M522.639 168.272L521.623 169.301L559.143 206.377L560.158 205.348L522.639 168.272Z" fill="#3F3D56"/>
<path d="M204.99 137.552L205.009 113.8L191.054 115.047L195.979 130.028L178.102 157.141C176.984 157.392 175.963 157.963 175.164 158.785C174.365 159.606 173.822 160.642 173.601 161.767C173.381 162.892 173.492 164.057 173.921 165.119C174.351 166.182 175.08 167.097 176.02 167.752C176.96 168.407 178.071 168.774 179.216 168.809C180.361 168.844 181.492 168.545 182.47 167.947C183.448 167.35 184.231 166.482 184.724 165.447C185.217 164.412 185.399 163.256 185.246 162.12L204.99 137.552Z" fill="#FFB6B6"/>
</g>
<defs>
<clipPath id="clip0_284_3200">
<rect width="646" height="324" fill="white"/>
</clipPath>
</defs>
</svg>
