<svg width="27" height="28" viewBox="0 0 27 28" fill="none" xmlns="http://www.w3.org/2000/svg">
<path d="M14.7016 5.30225H4.19854C1.89002 5.30225 0 7.21589 0 9.55327V25.0811C0 27.0631 1.40401 27.9106 3.11853 26.9401L8.42408 23.9466C8.99109 23.6322 9.9091 23.6322 10.4626 23.9466L15.7682 26.9401C17.4962 27.8969 18.9002 27.0631 18.9002 25.0811V9.55327C18.9002 7.21589 17.0102 5.30225 14.7016 5.30225Z" fill="#4D4D4D"/>
<path d="M27.0001 4.25102V19.7789C27.0001 21.7609 25.5961 22.5947 23.8816 21.6378L21.2761 20.1616C21.0601 20.0386 20.925 19.8062 20.925 19.5602V9.55455C20.925 6.08265 18.1305 3.2532 14.7015 3.2532H9.20699C8.70748 3.2532 8.35648 2.72011 8.58598 2.2827C9.28799 0.929484 10.692 0 12.2985 0H22.8016C25.1101 0 27.0001 1.91364 27.0001 4.25102Z" fill="#4D4D4D"/>
</svg>
