<svg width="36" height="36" viewBox="0 0 36 36" fill="none" xmlns="http://www.w3.org/2000/svg">
<path d="M18.3217 23.4998C21.5488 23.4998 24.1648 20.8837 24.1648 17.6566C24.1648 14.4295 21.5488 11.8135 18.3217 11.8135C15.0946 11.8135 12.4785 14.4295 12.4785 17.6566C12.4785 20.8837 15.0946 23.4998 18.3217 23.4998Z" fill="#A0616A"/>
<path d="M13.4854 24.8082L14.7034 21.6954L20.9966 20.748L21.6728 27.6386L15.3119 27.7739L13.4854 24.8082Z" fill="#A0616A"/>
<path d="M24.2216 18.7351C24.1458 19.039 23.9925 19.7623 23.7531 19.7659C23.5575 19.7688 23.3703 16.6305 23.5657 16.1114C23.7901 15.515 23.2003 14.7607 22.7561 14.3734C21.9573 13.6771 20.1842 15.1722 18.3812 14.4949C18.3334 14.477 18.3429 14.479 17.7736 14.2519C16.0216 13.5529 15.9295 13.5327 15.8292 13.5227C14.9799 13.4387 13.9434 14.1337 13.5202 14.981C13.0802 15.8619 13.4478 16.6174 13.0341 18.7483C12.9859 18.9967 12.9102 19.3507 12.791 19.3559C12.5733 19.3654 12.3606 18.2023 12.3049 17.8976C12.0716 16.6213 11.8467 15.3907 12.3049 14.0088C12.3549 13.8581 12.663 13.2987 13.2771 12.186C14.1619 10.583 14.6069 9.7785 14.7354 9.63395C15.6577 8.59684 17.3364 7.65075 18.7458 8.05413C19.4581 8.25802 19.3304 8.5858 20.2041 8.9048C21.761 9.47326 23.1141 8.77806 23.3637 9.26938C23.4959 9.52964 23.126 9.7442 23.1206 10.2416C23.1115 11.095 24.1908 11.3416 24.822 12.186C25.1613 12.6399 25.7421 12.6448 24.2216 18.7351Z" fill="#2F2E41"/>
<path d="M31.4609 29.9506C31.2254 30.2152 30.9811 30.4744 30.7281 30.7275C27.3284 34.1272 22.8081 35.9996 18.0002 35.9996C13.8446 35.9996 9.90423 34.6008 6.71633 32.026C6.7143 32.0247 6.71294 32.0233 6.71093 32.0213C6.28799 31.6803 5.87859 31.3176 5.4834 30.9346C5.49083 30.875 5.49896 30.8161 5.50775 30.7579C5.56324 30.3654 5.62483 29.9912 5.69384 29.6468C6.25888 26.8237 13.6937 23.8598 13.8872 23.7826C13.8899 23.7819 13.8913 23.7812 13.8913 23.7812C13.8913 23.7812 14.8481 27.3082 18.9482 27.2628C21.7409 27.2324 21.1996 23.7812 21.1996 23.7812C21.1996 23.7812 21.2334 23.788 21.297 23.8015C22.1036 23.9728 27.7039 25.203 29.9133 26.8819C30.5866 27.3934 31.0698 28.4829 31.4169 29.7821C31.4318 29.8376 31.446 29.8945 31.4609 29.9506Z" fill="#708238"/>
<path d="M30.7279 5.27212C27.3282 1.87247 22.8079 0 18 0C13.1921 0 8.67181 1.87247 5.2721 5.27212C1.87242 8.67183 0 13.1921 0 18C0 22.3884 1.55978 26.5372 4.41812 29.813C4.69083 30.1263 4.97572 30.4315 5.2721 30.728C5.3418 30.7976 5.41218 30.8673 5.48324 30.935C5.87843 31.318 6.28783 31.6807 6.71076 32.0217C6.71278 32.0238 6.71413 32.0252 6.71617 32.0265C9.90407 34.6013 13.8444 36 18 36C22.8079 36 27.3282 34.1276 30.7279 30.728C30.981 30.4749 31.2253 30.2157 31.4608 29.9511C34.3956 26.6543 36 22.4506 36 18C36 13.1921 34.1276 8.67183 30.7279 5.27212ZM31.4168 29.7826C30.8842 30.3882 30.3117 30.958 29.7027 31.4865C28.5476 32.4914 27.2619 33.3494 25.8753 34.0329C25.3888 34.2731 24.8901 34.4917 24.3799 34.6873C22.3978 35.4479 20.2466 35.8647 18 35.8647C15.8319 35.8647 13.7531 35.4763 11.8293 34.7658C11.0395 34.4747 10.2762 34.129 9.54339 33.7331C9.43579 33.6749 9.32888 33.6161 9.22263 33.5558C8.66369 33.2391 8.12301 32.8934 7.60399 32.5198C6.86031 31.9866 6.15925 31.3972 5.50759 30.7584C5.14218 30.4004 4.79301 30.0275 4.45941 29.6398C1.76549 26.5108 0.135338 22.4425 0.135338 18C0.135338 8.14944 8.14939 0.135338 18 0.135338C27.8506 0.135338 35.8647 8.14944 35.8647 18C35.8647 22.5108 34.1844 26.6359 31.4168 29.7826Z" fill="#3F3D56"/>
</svg>
