<svg width="24" height="24" viewBox="0 0 24 24" fill="none" xmlns="http://www.w3.org/2000/svg">
<path d="M20.222 9.1604H18.888C18.903 9.0704 18.916 8.9784 18.916 8.8834V6.5704C18.916 5.5904 18.119 4.7934 17.138 4.7934H3.5V3.3584C3.5 2.9444 3.164 2.6084 2.75 2.6084C2.336 2.6084 2 2.9444 2 3.3584V20.8304C2 21.2454 2.336 21.5804 2.75 21.5804C3.164 21.5804 3.5 21.2454 3.5 20.8304V19.3964H14.056C15.036 19.3964 15.834 18.5994 15.834 17.6194V15.3064C15.834 15.2114 15.82 15.1194 15.806 15.0284H20.223C21.203 15.0284 22.001 14.2304 22.001 13.2504V10.9404C22.001 9.9574 21.204 9.1604 20.223 9.1604H20.222ZM17.14 6.2934C17.292 6.2934 17.417 6.4174 17.417 6.5704V8.8804C17.417 9.0344 17.292 9.1604 17.139 9.1604H3.5V6.2904H17.14V6.2934ZM14.333 15.3074V17.6194C14.333 17.7724 14.208 17.8964 14.055 17.8964H3.5V15.0284H14.056C14.209 15.0284 14.333 15.1544 14.333 15.3084V15.3074ZM20.5 13.2504C20.5 13.4034 20.375 13.5274 20.222 13.5274H3.5V10.6604H20.222C20.375 10.6604 20.5 10.7844 20.5 10.9374V13.2504Z" fill="#708238"/>
</svg>
