<svg width="40" height="40" viewBox="0 0 40 40" fill="none" xmlns="http://www.w3.org/2000/svg">
<circle cx="20" cy="20" r="20" fill="#EB5757"/>
<path fill-rule="evenodd" clip-rule="evenodd" d="M20 37.5C10.335 37.5 2.5 29.6625 2.5 20C2.5 10.3375 10.335 2.5 20 2.5C29.665 2.5 37.5 10.3375 37.5 20C37.5 29.6625 29.665 37.5 20 37.5ZM20 0C8.95375 0 0 8.95 0 20C0 31.05 8.95375 40 20 40C31.0463 40 40 31.05 40 20C40 8.95 31.0463 0 20 0ZM27.1462 12.85C26.6537 12.3625 25.8575 12.3625 25.365 12.85L19.9925 18.2249L14.6975 12.925C14.2087 12.4375 13.4162 12.4375 12.93 12.925C12.4412 13.4125 12.4412 14.2125 12.93 14.7L18.225 19.9875L12.8925 25.325C12.4013 25.8125 12.4013 26.6124 12.8925 27.1124C13.385 27.5999 14.1825 27.5999 14.675 27.1124L20.0075 21.7751L25.3025 27.075C25.7913 27.5625 26.5837 27.5625 27.0712 27.075C27.56 26.5875 27.56 25.7875 27.0712 25.3L21.775 20.0125L27.1462 14.6375C27.6375 14.1375 27.6375 13.35 27.1462 12.85Z" fill="white"/>
</svg>
