<svg xmlns="http://www.w3.org/2000/svg" xmlns:xlink="http://www.w3.org/1999/xlink" width="1920" zoomAndPan="magnify" viewBox="0 0 1440 809.999993" height="1080" preserveAspectRatio="xMidYMid meet" version="1.2"><defs><clipPath id="f26bd213b4"><path d="M 1119 62.820312 L 1217 62.820312 L 1217 285 L 1119 285 Z M 1119 62.820312 "/></clipPath><clipPath id="1d3e82423e"><path d="M 1153 62.820312 L 1217 62.820312 L 1217 285 L 1153 285 Z M 1153 62.820312 "/></clipPath><clipPath id="2a29c0cda8"><path d="M 1156 62.820312 L 1217 62.820312 L 1217 285 L 1156 285 Z M 1156 62.820312 "/></clipPath></defs><g id="b86ef07708"><g style="fill:#9cc248;fill-opacity:1;"><g transform="translate(192.554989, 678.981497)"><path style="stroke:none" d="M 370.15625 -322.265625 L 382.328125 -322.265625 L 336.875 -396.140625 L 336.875 -568.21875 L 547.9375 -568.21875 L 547.9375 0 L 334.4375 0 L 186.703125 -235.40625 L 173.71875 -235.40625 L 219.984375 -160.71875 L 219.984375 0 L 8.921875 0 L 8.921875 -568.21875 L 211.859375 -568.21875 Z M 370.15625 -322.265625 "/></g></g><path style="fill:none;stroke-width:7;stroke-linecap:butt;stroke-linejoin:miter;stroke:#cbb68e;stroke-opacity:1;stroke-miterlimit:4;" d="M 0.000431081 3.500136 L 122.17987 3.500136 " transform="matrix(-2.738768,0,0,-2.738768,533.512899,740.980591)"/><path style=" stroke:none;fill-rule:nonzero;fill:#90a550;fill-opacity:1;" d="M 1162.078125 287.296875 C 1152.945312 251.117188 1151.308594 223.296875 1157.167969 203.835938 C 1167.574219 173.914062 1185.382812 145.765625 1210.589844 119.382812 C 1230.496094 99.648438 1263.9375 85.582031 1310.914062 77.1875 C 1323.636719 84.679688 1326.222656 105.269531 1318.675781 138.960938 C 1312.382812 167.765625 1303.9375 186.691406 1293.339844 195.742188 C 1274.90625 213.902344 1253.367188 232.65625 1228.722656 252.003906 C 1226.285156 253.804688 1221.058594 260.21875 1213.042969 271.25 C 1211.171875 273.457031 1208.179688 276.25 1204.066406 279.625 C 1195.671875 286.90625 1182.640625 294.445312 1164.972656 302.242188 C 1160.71875 305.269531 1157.847656 308.019531 1156.359375 310.492188 Z M 1162.078125 287.296875 "/><path style=" stroke:none;fill-rule:nonzero;fill:#a2b959;fill-opacity:0.506;" d="M 1303.503906 78.714844 C 1295.355469 80.003906 1283.671875 82.921875 1268.449219 87.472656 C 1260.015625 90.179688 1252.25 93.164062 1245.152344 96.429688 L 1235.007812 101.539062 C 1228.578125 105.085938 1222.820312 108.910156 1217.726562 113.015625 L 1210.589844 119.382812 C 1199.386719 131.109375 1189.644531 143.183594 1181.367188 155.605469 C 1168.4375 175.324219 1159.816406 193.667969 1155.492188 210.632812 C 1155.3125 211.546875 1155.148438 212.472656 1154.996094 213.414062 C 1157.996094 212.8125 1160.929688 211.90625 1163.792969 210.703125 C 1169.109375 208.550781 1174.402344 205.445312 1179.667969 201.390625 L 1224.957031 156.449219 C 1228.429688 152.21875 1234.0625 141.300781 1241.855469 123.695312 C 1243.988281 119.929688 1247.097656 116.128906 1251.191406 112.304688 C 1255.101562 108.546875 1259.085938 105.351562 1263.148438 102.722656 C 1281.074219 93.378906 1293.140625 86.519531 1299.355469 82.132812 C 1300.695312 81.550781 1302.078125 80.414062 1303.503906 78.714844 Z M 1303.503906 78.714844 "/><path style=" stroke:none;fill-rule:nonzero;fill:#799039;fill-opacity:1;" d="M 1312.128906 77.964844 C 1311.875 77.957031 1311.617188 77.953125 1311.347656 77.957031 L 1311.351562 77.957031 C 1296.066406 105.289062 1286.585938 120.96875 1282.90625 124.988281 C 1266.859375 144.601562 1251.441406 158.960938 1236.644531 168.070312 C 1228.367188 176.460938 1221.960938 183.902344 1217.429688 190.394531 L 1163.277344 281.105469 C 1163.023438 281.539062 1162.304688 282.304688 1161.117188 283.398438 C 1161.425781 284.6875 1161.75 285.984375 1162.078125 287.296875 L 1156.359375 310.492188 C 1158.503906 307.402344 1161.375 304.652344 1164.972656 302.242188 C 1184.621094 293.496094 1198.511719 285.234375 1206.644531 277.460938 C 1210.050781 274.453125 1212.183594 272.382812 1213.042969 271.25 C 1220.167969 261.445312 1225.089844 255.289062 1227.804688 252.777344 C 1247.46875 237.035156 1260.507812 226.214844 1266.921875 220.308594 C 1278.429688 209.976562 1285.148438 203.8125 1287.082031 201.816406 L 1296.792969 192.359375 L 1300.085938 188.246094 C 1302.226562 185.257812 1304.265625 181.785156 1306.195312 177.824219 C 1310.832031 167.0625 1313.488281 160.023438 1314.160156 156.699219 C 1317.527344 145.539062 1320.179688 133.046875 1322.117188 119.222656 C 1323.035156 105.300781 1323.035156 97.65625 1322.113281 96.296875 C 1320.734375 87.890625 1317.515625 81.859375 1312.460938 78.199219 Z M 1312.128906 77.964844 "/><path style=" stroke:none;fill-rule:nonzero;fill:#60712c;fill-opacity:0.506;" d="M 1312.128906 77.964844 C 1311.015625 77.933594 1309.730469 77.984375 1308.277344 78.113281 C 1310.976562 83.574219 1312.570312 89.996094 1313.058594 97.375 C 1312.90625 103.671875 1311.492188 109.773438 1308.808594 115.683594 C 1307.308594 119.492188 1302.621094 127.671875 1294.75 140.222656 L 1286.554688 160.335938 L 1245.496094 204.527344 C 1227.644531 214.402344 1217.136719 221.082031 1213.972656 224.5625 L 1177.507812 275.0625 C 1175.238281 277.878906 1169.867188 282.878906 1161.394531 290.0625 L 1156.359375 310.492188 C 1158.503906 307.402344 1161.375 304.652344 1164.972656 302.242188 C 1184.621094 293.496094 1198.511719 285.234375 1206.644531 277.460938 C 1210.050781 274.453125 1212.183594 272.382812 1213.042969 271.25 C 1220.167969 261.445312 1225.089844 255.289062 1227.804688 252.777344 C 1247.46875 237.035156 1260.507812 226.214844 1266.921875 220.308594 C 1278.429688 209.976562 1285.148438 203.8125 1287.082031 201.816406 L 1296.792969 192.359375 L 1300.085938 188.246094 C 1302.226562 185.257812 1304.265625 181.785156 1306.195312 177.824219 C 1310.832031 167.0625 1313.488281 160.023438 1314.160156 156.699219 C 1317.527344 145.539062 1320.179688 133.046875 1322.117188 119.222656 C 1323.035156 105.300781 1323.035156 97.65625 1322.113281 96.296875 C 1320.734375 87.890625 1317.515625 81.859375 1312.460938 78.199219 Z M 1312.128906 77.964844 "/><path style=" stroke:none;fill-rule:nonzero;fill:#bccf84;fill-opacity:1;" d="M 1144.820312 314.421875 C 1159.238281 284.613281 1167.054688 268.0625 1168.269531 264.761719 C 1168.292969 264.699219 1168.316406 264.636719 1168.347656 264.574219 C 1171.433594 258.007812 1174.148438 252.554688 1176.488281 248.222656 L 1176.484375 248.230469 C 1183.761719 234.609375 1192.90625 219.734375 1203.917969 203.609375 L 1203.914062 203.613281 C 1207.246094 198.707031 1213.335938 190.179688 1222.183594 178.039062 L 1222.1875 178.039062 C 1225.210938 173.898438 1227.46875 171.046875 1228.964844 169.484375 L 1228.957031 169.492188 C 1232.464844 165.785156 1235.648438 162.644531 1238.503906 160.074219 C 1238.515625 160.066406 1238.523438 160.058594 1238.53125 160.050781 L 1261.066406 140.402344 L 1260.980469 140.480469 C 1264.128906 137.453125 1268.238281 132.878906 1273.316406 126.753906 C 1274.148438 125.753906 1275.636719 125.609375 1276.644531 126.433594 C 1277.652344 127.257812 1277.796875 128.738281 1276.964844 129.742188 C 1271.773438 136 1267.542969 140.707031 1264.269531 143.855469 C 1264.242188 143.878906 1264.210938 143.90625 1264.183594 143.929688 L 1241.652344 163.582031 L 1241.679688 163.558594 C 1238.914062 166.042969 1235.824219 169.09375 1232.398438 172.707031 C 1232.398438 172.710938 1232.394531 172.714844 1232.390625 172.71875 C 1231.039062 174.128906 1228.914062 176.824219 1226.011719 180.796875 L 1226.015625 180.792969 C 1217.195312 192.894531 1211.136719 201.375 1207.832031 206.242188 L 1207.828125 206.246094 C 1196.914062 222.230469 1187.855469 236.960938 1180.660156 250.433594 C 1180.65625 250.433594 1180.65625 250.4375 1180.652344 250.441406 C 1178.355469 254.699219 1175.679688 260.074219 1172.628906 266.5625 L 1172.707031 266.375 C 1171.445312 269.816406 1163.566406 286.507812 1149.078125 316.457031 C 1148.511719 317.625 1147.101562 318.117188 1145.925781 317.554688 C 1144.75 316.992188 1144.253906 315.589844 1144.820312 314.421875 Z M 1144.820312 314.421875 "/><path style=" stroke:none;fill-rule:nonzero;fill:#bccf84;fill-opacity:1;" d="M 1149.589844 311.839844 C 1149.777344 312.355469 1150.992188 314.003906 1154.199219 316.683594 C 1154.203125 316.6875 1154.207031 316.691406 1154.203125 316.691406 C 1153.964844 316.511719 1153.425781 316.535156 1153.210938 316.703125 C 1153.214844 316.703125 1153.246094 316.675781 1153.300781 316.609375 C 1153.371094 316.527344 1153.46875 316.394531 1153.578125 316.207031 L 1153.445312 316.472656 L 1158.546875 304.425781 C 1158.570312 304.375 1158.59375 304.324219 1158.617188 304.273438 C 1165.277344 291.253906 1168.6875 284.484375 1169.007812 283.707031 C 1169.011719 283.703125 1169 283.726562 1168.984375 283.769531 C 1169.007812 283.703125 1169.035156 283.636719 1169.0625 283.574219 L 1184.597656 249.160156 C 1184.609375 249.132812 1184.625 249.101562 1184.640625 249.070312 C 1186.058594 246.253906 1187.570312 243.324219 1189.289062 240.382812 C 1192.570312 234.761719 1197.875 225.402344 1205.082031 212.234375 L 1205.027344 212.34375 L 1213.964844 193.789062 C 1213.976562 193.761719 1213.992188 193.734375 1214.003906 193.710938 C 1214.59375 192.59375 1215.105469 191.261719 1215.734375 189.605469 C 1216.472656 187.660156 1217.339844 185.371094 1218.597656 182.992188 C 1219.367188 181.535156 1220.289062 180.035156 1221.425781 178.53125 C 1222.210938 177.496094 1223.691406 177.289062 1224.734375 178.066406 C 1225.777344 178.847656 1225.988281 180.320312 1225.203125 181.355469 C 1224.238281 182.628906 1223.453125 183.910156 1222.78125 185.175781 C 1221.675781 187.265625 1220.902344 189.296875 1220.15625 191.265625 C 1219.554688 192.847656 1218.941406 194.472656 1218.191406 195.894531 L 1218.230469 195.816406 L 1209.292969 214.371094 C 1209.273438 214.40625 1209.257812 214.441406 1209.238281 214.476562 C 1202.015625 227.671875 1196.6875 237.070312 1193.378906 242.738281 C 1191.734375 245.554688 1190.277344 248.378906 1188.867188 251.175781 L 1188.910156 251.082031 L 1173.375 285.496094 L 1173.453125 285.296875 C 1173.429688 285.371094 1173.402344 285.4375 1173.386719 285.480469 C 1172.96875 286.496094 1169.402344 293.554688 1162.832031 306.398438 L 1162.90625 306.246094 L 1157.800781 318.296875 C 1157.761719 318.386719 1157.714844 318.476562 1157.667969 318.5625 C 1157.445312 318.941406 1157.199219 319.304688 1156.917969 319.632812 C 1156.691406 319.898438 1156.4375 320.15625 1156.144531 320.386719 C 1154.71875 321.507812 1152.898438 321.582031 1151.378906 320.453125 C 1151.300781 320.398438 1151.226562 320.339844 1151.15625 320.277344 C 1148.027344 317.664062 1145.808594 315.28125 1145.140625 313.417969 C 1144.699219 312.199219 1145.339844 310.855469 1146.570312 310.417969 C 1147.800781 309.980469 1149.152344 310.617188 1149.589844 311.839844 Z M 1149.589844 311.839844 "/><path style=" stroke:none;fill-rule:nonzero;fill:#bccf84;fill-opacity:1;" d="M 1210.367188 208.898438 C 1208.339844 211.097656 1206.21875 213.949219 1203.996094 217.453125 L 1204.019531 217.417969 C 1201.496094 221.566406 1196.511719 229.503906 1189.074219 241.226562 L 1189.089844 241.199219 C 1187.34375 244.039062 1185.84375 246.621094 1184.597656 248.945312 C 1184.597656 248.953125 1184.59375 248.957031 1184.589844 248.964844 C 1182.8125 252.21875 1181.070312 255.675781 1179.359375 259.339844 L 1179.382812 259.285156 C 1174.320312 270.839844 1171.214844 277.75 1170.0625 280.019531 L 1170.066406 280.015625 L 1162.921875 294.183594 L 1162.953125 294.121094 C 1161.785156 296.625 1160.605469 299.421875 1159.414062 302.511719 C 1158.949219 303.722656 1157.582031 304.328125 1156.363281 303.867188 C 1155.144531 303.402344 1154.535156 302.046875 1155 300.832031 C 1156.226562 297.644531 1157.449219 294.746094 1158.667969 292.144531 C 1158.675781 292.125 1158.6875 292.101562 1158.695312 292.082031 L 1165.839844 277.914062 L 1165.839844 277.90625 C 1166.953125 275.714844 1170.019531 268.882812 1175.046875 257.414062 C 1175.054688 257.394531 1175.0625 257.378906 1175.070312 257.359375 C 1176.824219 253.609375 1178.613281 250.066406 1180.433594 246.726562 L 1180.425781 246.742188 C 1181.714844 244.332031 1183.261719 241.667969 1185.058594 238.75 C 1185.0625 238.742188 1185.070312 238.730469 1185.074219 238.722656 C 1192.5 227.023438 1197.464844 219.113281 1199.972656 214.988281 C 1199.980469 214.976562 1199.988281 214.964844 1199.996094 214.953125 C 1202.367188 211.210938 1204.664062 208.132812 1206.878906 205.726562 C 1207.761719 204.773438 1209.257812 204.707031 1210.21875 205.582031 C 1211.183594 206.457031 1211.25 207.941406 1210.367188 208.898438 Z M 1210.367188 208.898438 "/><path style=" stroke:none;fill-rule:nonzero;fill:#bccf84;fill-opacity:1;" d="M 1193.824219 236.855469 L 1187.179688 250.042969 C 1187.167969 250.070312 1187.152344 250.097656 1187.140625 250.121094 C 1180.878906 261.453125 1176.5625 269.652344 1174.1875 274.726562 C 1174.183594 274.730469 1174.183594 274.734375 1174.179688 274.738281 C 1171.609375 280.160156 1168.160156 289.042969 1163.828125 301.382812 C 1163.398438 302.609375 1162.050781 303.253906 1160.820312 302.828125 C 1159.585938 302.402344 1158.9375 301.0625 1159.367188 299.839844 C 1163.75 287.339844 1167.261719 278.308594 1169.90625 272.738281 L 1169.898438 272.746094 C 1172.320312 267.578125 1176.683594 259.285156 1182.996094 247.863281 L 1182.953125 247.941406 L 1189.597656 234.753906 C 1190.183594 233.59375 1191.601562 233.125 1192.769531 233.707031 C 1193.9375 234.285156 1194.410156 235.695312 1193.824219 236.855469 Z M 1193.824219 236.855469 "/><path style=" stroke:none;fill-rule:nonzero;fill:#bccf84;fill-opacity:1;" d="M 1164.332031 293.070312 C 1164.257812 293.144531 1164.191406 293.222656 1164.128906 293.304688 C 1164.121094 293.316406 1164.113281 293.328125 1164.105469 293.339844 C 1163.265625 294.460938 1162.640625 295.328125 1162.238281 295.941406 C 1162.234375 295.945312 1162.230469 295.953125 1162.226562 295.957031 C 1161.53125 296.984375 1160.824219 298.136719 1160.101562 299.421875 L 1160.109375 299.402344 C 1157.640625 303.882812 1155.980469 307.3125 1155.128906 309.695312 C 1154.691406 310.917969 1153.339844 311.554688 1152.109375 311.121094 C 1150.878906 310.6875 1150.234375 309.34375 1150.671875 308.121094 C 1151.609375 305.503906 1153.375 301.847656 1155.964844 297.148438 C 1155.96875 297.140625 1155.972656 297.132812 1155.976562 297.128906 C 1156.761719 295.734375 1157.535156 294.46875 1158.300781 293.335938 L 1158.289062 293.355469 C 1158.742188 292.671875 1159.417969 291.730469 1160.308594 290.539062 L 1160.285156 290.574219 C 1160.507812 290.265625 1160.753906 289.976562 1161.027344 289.710938 C 1161.964844 288.804688 1163.460938 288.824219 1164.371094 289.75 C 1165.285156 290.679688 1165.265625 292.164062 1164.332031 293.070312 Z M 1164.332031 293.070312 "/><path style=" stroke:none;fill-rule:nonzero;fill:#bccf84;fill-opacity:1;" d="M 1165.234375 291.023438 C 1164.835938 290.734375 1164.289062 290.597656 1163.601562 290.617188 C 1162.824219 290.636719 1162.164062 290.988281 1161.628906 291.667969 C 1161.625 291.671875 1161.621094 291.679688 1161.617188 291.683594 C 1160.976562 292.511719 1160.433594 293.25 1159.988281 293.898438 C 1159.570312 293.917969 1159.152344 294.046875 1158.78125 294.296875 C 1156.296875 295.949219 1153.574219 298.800781 1150.617188 302.847656 C 1147.933594 306.304688 1145.519531 310.394531 1143.375 315.113281 C 1143.363281 315.140625 1143.351562 315.167969 1143.339844 315.199219 C 1142.957031 316.132812 1142.734375 316.917969 1142.667969 317.550781 C 1142.53125 318.824219 1142.875 319.753906 1143.695312 320.347656 C 1143.898438 320.496094 1144.128906 320.621094 1144.390625 320.726562 C 1144.546875 320.789062 1144.703125 320.835938 1144.867188 320.871094 C 1147.1875 321.421875 1149.292969 322.050781 1151.1875 322.753906 C 1151.214844 322.765625 1151.242188 322.773438 1151.273438 322.785156 C 1152.457031 323.171875 1153.550781 322.953125 1154.5625 322.125 C 1154.617188 322.082031 1154.667969 322.035156 1154.71875 321.984375 C 1155.800781 320.925781 1156.839844 319.144531 1157.828125 316.652344 C 1158.195312 315.746094 1158.605469 314.519531 1159.054688 312.96875 C 1159.070312 312.921875 1159.082031 312.871094 1159.09375 312.824219 C 1160.089844 308.378906 1160.886719 305.375 1161.492188 303.808594 C 1161.496094 303.792969 1161.5 303.78125 1161.503906 303.769531 C 1162.589844 300.789062 1164.023438 297.574219 1165.808594 294.121094 C 1165.988281 293.769531 1166.078125 293.382812 1166.066406 292.988281 C 1166.042969 292.0625 1165.765625 291.410156 1165.234375 291.023438 Z M 1165.234375 291.023438 "/><path style=" stroke:none;fill-rule:nonzero;fill:#bccf84;fill-opacity:1;" d="M 1209.28125 206.335938 C 1212.195312 200.539062 1217.136719 194.414062 1224.113281 187.964844 L 1224.070312 188.003906 C 1231.402344 180.609375 1238.84375 174.855469 1246.394531 170.742188 C 1246.410156 170.734375 1246.425781 170.726562 1246.4375 170.722656 C 1261.550781 163.210938 1276.972656 159.878906 1292.699219 160.722656 C 1293.421875 160.761719 1293.976562 161.375 1293.9375 162.09375 C 1293.898438 162.8125 1293.28125 163.363281 1292.554688 163.324219 C 1277.292969 162.503906 1262.3125 165.746094 1247.613281 173.050781 L 1247.65625 173.027344 C 1240.328125 177.019531 1233.089844 182.617188 1225.941406 189.832031 C 1225.925781 189.84375 1225.914062 189.859375 1225.898438 189.871094 C 1219.15625 196.109375 1214.398438 201.984375 1211.628906 207.5 C 1211.308594 208.144531 1210.519531 208.40625 1209.871094 208.082031 C 1209.222656 207.761719 1208.960938 206.980469 1209.28125 206.335938 Z M 1209.28125 206.335938 "/><path style=" stroke:none;fill-rule:nonzero;fill:#bccf84;fill-opacity:1;" d="M 1242.550781 113.816406 C 1240.851562 116.96875 1239.34375 120.84375 1238.03125 125.445312 C 1238.027344 125.46875 1238.019531 125.488281 1238.011719 125.507812 C 1237.332031 127.527344 1235.035156 136.871094 1231.132812 153.535156 C 1231.128906 153.546875 1231.125 153.558594 1231.125 153.570312 C 1230.046875 157.65625 1228.8125 161.675781 1227.425781 165.632812 L 1227.441406 165.578125 C 1225.726562 171.261719 1220.179688 183.796875 1210.8125 203.179688 L 1210.835938 203.125 C 1209.398438 206.472656 1208.105469 209.960938 1206.957031 213.585938 C 1206.742188 214.273438 1206.003906 214.65625 1205.3125 214.4375 C 1204.621094 214.222656 1204.238281 213.492188 1204.457031 212.804688 C 1205.628906 209.097656 1206.953125 205.53125 1208.421875 202.101562 C 1208.429688 202.085938 1208.4375 202.066406 1208.445312 202.050781 C 1217.757812 182.789062 1223.253906 170.382812 1224.929688 164.828125 C 1224.9375 164.8125 1224.941406 164.792969 1224.949219 164.773438 C 1226.3125 160.882812 1227.527344 156.929688 1228.585938 152.910156 L 1228.578125 152.945312 C 1232.5 136.199219 1234.816406 126.777344 1235.527344 124.679688 L 1235.507812 124.738281 C 1236.871094 119.953125 1238.449219 115.902344 1240.242188 112.585938 C 1240.582031 111.953125 1241.378906 111.714844 1242.015625 112.054688 C 1242.65625 112.394531 1242.894531 113.183594 1242.550781 113.816406 Z M 1242.550781 113.816406 "/><path style=" stroke:none;fill-rule:nonzero;fill:#bccf84;fill-opacity:1;" d="M 1204.105469 141.988281 C 1201.300781 148.046875 1199.476562 154.761719 1198.636719 162.128906 C 1198.632812 162.128906 1198.632812 162.132812 1198.632812 162.136719 C 1198.234375 165.433594 1197.929688 170.203125 1197.71875 176.449219 L 1197.71875 176.445312 C 1197.664062 178.46875 1197.632812 180.820312 1197.628906 183.492188 L 1197.628906 183.484375 L 1197.699219 202.285156 C 1197.699219 202.292969 1197.699219 202.300781 1197.699219 202.308594 C 1197.65625 205.289062 1197.511719 208.453125 1197.269531 211.800781 L 1197.269531 211.792969 C 1197.058594 214.957031 1196.691406 217.847656 1196.171875 220.46875 L 1196.1875 220.378906 C 1196.0625 221.359375 1195.199219 224.757812 1193.597656 230.574219 C 1193.40625 231.269531 1192.6875 231.675781 1191.988281 231.488281 C 1191.289062 231.296875 1190.878906 230.582031 1191.066406 229.886719 C 1192.636719 224.1875 1193.476562 220.910156 1193.585938 220.054688 C 1193.589844 220.023438 1193.59375 219.992188 1193.601562 219.964844 C 1194.097656 217.453125 1194.449219 214.671875 1194.652344 211.621094 C 1194.652344 211.617188 1194.652344 211.617188 1194.652344 211.613281 C 1194.894531 208.316406 1195.035156 205.199219 1195.078125 202.273438 L 1195.078125 202.296875 L 1195.007812 183.496094 L 1195.007812 183.488281 C 1195.011719 180.792969 1195.039062 178.421875 1195.097656 176.371094 L 1195.097656 176.363281 C 1195.3125 170.042969 1195.621094 165.195312 1196.03125 161.824219 L 1196.027344 161.832031 C 1196.902344 154.191406 1198.800781 147.210938 1201.722656 140.898438 C 1202.023438 140.246094 1202.804688 139.960938 1203.460938 140.261719 C 1204.121094 140.5625 1204.40625 141.335938 1204.105469 141.988281 Z M 1204.105469 141.988281 "/><path style=" stroke:none;fill-rule:nonzero;fill:#bccf84;fill-opacity:1;" d="M 1191.851562 235.542969 C 1197.058594 227.671875 1207.558594 219.707031 1223.355469 211.644531 C 1223.355469 211.644531 1223.359375 211.640625 1223.363281 211.640625 C 1237.027344 204.777344 1247.164062 200.097656 1253.773438 197.601562 L 1253.160156 199.5625 C 1252.652344 198.832031 1252.777344 198.203125 1253.546875 197.675781 C 1253.59375 197.640625 1253.652344 197.605469 1253.710938 197.570312 C 1255.039062 196.824219 1265.753906 193.457031 1285.863281 187.472656 C 1286.558594 187.265625 1287.289062 187.65625 1287.496094 188.347656 C 1287.703125 189.035156 1287.308594 189.761719 1286.617188 189.96875 C 1266.695312 195.898438 1256.160156 199.1875 1255.003906 199.839844 C 1255.015625 199.832031 1255.027344 199.824219 1255.042969 199.8125 C 1255.710938 199.351562 1255.800781 198.773438 1255.316406 198.074219 C 1255.546875 198.40625 1255.609375 198.820312 1255.492188 199.203125 C 1255.371094 199.585938 1255.082031 199.894531 1254.703125 200.039062 C 1248.179688 202.5 1238.128906 207.144531 1224.546875 213.964844 L 1224.554688 213.960938 C 1209.164062 221.816406 1198.996094 229.484375 1194.046875 236.972656 C 1193.648438 237.574219 1192.835938 237.742188 1192.230469 237.347656 C 1191.625 236.953125 1191.457031 236.144531 1191.851562 235.542969 Z M 1191.851562 235.542969 "/><path style=" stroke:none;fill-rule:nonzero;fill:#bccf84;fill-opacity:1;" d="M 1170.304688 183.265625 C 1170.628906 184.535156 1170.660156 188.058594 1170.386719 193.839844 C 1170.386719 193.847656 1170.386719 193.859375 1170.386719 193.867188 C 1170.132812 197.550781 1169.960938 199.828125 1169.871094 200.699219 L 1169.875 200.695312 C 1169.261719 206.855469 1168.714844 211.855469 1168.234375 215.695312 L 1168.238281 215.671875 C 1168.097656 217.03125 1167.972656 218.394531 1167.875 219.75 L 1167.875 219.742188 C 1167.539062 224.714844 1167.457031 228.726562 1167.625 231.773438 C 1167.625 231.78125 1167.625 231.789062 1167.625 231.796875 C 1167.792969 236.113281 1168.214844 240.304688 1168.890625 244.375 C 1168.902344 244.425781 1168.90625 244.480469 1168.910156 244.53125 C 1168.945312 245.367188 1169.992188 249.882812 1172.042969 258.082031 C 1172.046875 258.09375 1172.046875 258.105469 1172.050781 258.117188 C 1172.453125 259.941406 1172.746094 261.523438 1172.925781 262.863281 L 1172.921875 262.84375 C 1173.558594 267.046875 1173.914062 271.378906 1173.996094 275.839844 C 1174.011719 276.558594 1173.433594 277.152344 1172.710938 277.167969 C 1171.984375 277.179688 1171.386719 276.605469 1171.375 275.886719 C 1171.292969 271.539062 1170.945312 267.320312 1170.328125 263.230469 C 1170.328125 263.222656 1170.328125 263.214844 1170.324219 263.210938 C 1170.15625 261.941406 1169.875 260.429688 1169.488281 258.671875 L 1169.496094 258.707031 C 1167.402344 250.34375 1166.335938 245.65625 1166.289062 244.648438 L 1166.304688 244.800781 C 1165.609375 240.621094 1165.175781 236.320312 1165.003906 231.898438 L 1165.007812 231.917969 C 1164.832031 228.765625 1164.914062 224.648438 1165.257812 219.566406 C 1165.257812 219.566406 1165.257812 219.5625 1165.257812 219.558594 C 1165.359375 218.175781 1165.484375 216.789062 1165.628906 215.398438 C 1165.632812 215.390625 1165.632812 215.382812 1165.632812 215.375 C 1166.109375 211.554688 1166.652344 206.578125 1167.261719 200.4375 L 1167.261719 200.433594 C 1167.351562 199.589844 1167.519531 197.34375 1167.769531 193.691406 L 1167.769531 193.71875 C 1168.027344 188.199219 1168.023438 184.929688 1167.761719 183.914062 C 1167.582031 183.214844 1168.007812 182.507812 1168.707031 182.328125 C 1169.410156 182.148438 1170.125 182.570312 1170.304688 183.265625 Z M 1170.304688 183.265625 "/><path style=" stroke:none;fill-rule:nonzero;fill:#bccf84;fill-opacity:1;" d="M 1169.425781 277.210938 C 1173.605469 271.3125 1182.320312 263.75 1195.570312 254.527344 C 1195.585938 254.515625 1195.601562 254.503906 1195.621094 254.496094 C 1201.464844 250.832031 1212.414062 244.894531 1228.46875 236.6875 L 1228.394531 236.726562 L 1249.011719 224.433594 C 1249.027344 224.421875 1249.042969 224.414062 1249.0625 224.402344 C 1253.339844 222.113281 1258.238281 219.746094 1263.757812 217.304688 C 1264.417969 217.011719 1265.195312 217.308594 1265.488281 217.964844 C 1265.78125 218.621094 1265.484375 219.394531 1264.824219 219.683594 C 1259.363281 222.097656 1254.527344 224.4375 1250.308594 226.695312 L 1250.359375 226.667969 L 1229.742188 238.960938 C 1229.71875 238.976562 1229.695312 238.988281 1229.667969 239.003906 C 1213.683594 247.175781 1202.800781 253.074219 1197.019531 256.699219 L 1197.074219 256.664062 C 1184.074219 265.710938 1175.574219 273.058594 1171.570312 278.710938 C 1171.152344 279.296875 1170.332031 279.441406 1169.742188 279.027344 C 1169.148438 278.613281 1169.007812 277.796875 1169.425781 277.210938 Z M 1169.425781 277.210938 "/><path style=" stroke:none;fill-rule:nonzero;fill:#d4ee8c;fill-opacity:0.294;" d="M 1310.878906 144.121094 L 1310.773438 144.121094 C 1303.269531 158.957031 1296.589844 169.269531 1290.734375 175.0625 C 1287.726562 178.617188 1276.554688 187.339844 1257.21875 201.230469 C 1248.480469 212.085938 1239.023438 223.121094 1228.851562 234.332031 C 1210.566406 254.070312 1196.734375 268.359375 1187.367188 277.203125 L 1192.53125 273.828125 C 1188.210938 277.074219 1186.070312 278.917969 1186.113281 279.367188 C 1185.445312 280.292969 1185.789062 280.785156 1187.148438 280.835938 C 1187.683594 280.839844 1188.382812 280.757812 1189.238281 280.601562 C 1201.699219 272.597656 1211.238281 266 1217.859375 260.808594 C 1221.648438 256.996094 1224.394531 253.867188 1226.09375 251.429688 C 1233.234375 239.6875 1237.839844 232.746094 1239.917969 230.59375 L 1269.253906 205.902344 L 1275.066406 200.230469 L 1284.363281 190.269531 C 1292.855469 181.175781 1299.855469 171.789062 1305.359375 162.105469 C 1311.167969 150.347656 1313.007812 144.351562 1310.878906 144.121094 Z M 1310.878906 144.121094 "/><path style=" stroke:none;fill-rule:nonzero;fill:#d4ee8c;fill-opacity:0.294;" d="M 1318.222656 101.753906 L 1318.042969 101.761719 C 1317.171875 101.921875 1316.597656 103.082031 1316.328125 105.242188 C 1316.257812 105.71875 1316.195312 106.523438 1316.144531 107.65625 C 1316.167969 110.332031 1316.171875 112.179688 1316.15625 113.207031 C 1316.171875 113.390625 1316.121094 114.574219 1316 116.757812 C 1315.933594 117.914062 1315.808594 119.214844 1315.621094 120.660156 C 1315.445312 121.863281 1315.304688 122.722656 1315.199219 123.246094 C 1314.636719 126.1875 1314.105469 128.789062 1313.609375 131.046875 C 1313.402344 131.425781 1312.996094 132.320312 1312.398438 133.730469 C 1311.96875 134.808594 1311.683594 135.726562 1311.542969 136.492188 C 1311.40625 137.234375 1311.410156 137.859375 1311.542969 138.367188 C 1311.648438 138.824219 1311.929688 139.058594 1312.390625 139.074219 C 1313.15625 138.988281 1314.035156 138.054688 1315.027344 136.269531 C 1315.394531 135.4375 1315.738281 134.601562 1316.058594 133.757812 C 1316.246094 133.34375 1316.675781 132.0625 1317.339844 129.917969 C 1317.84375 128.1875 1318.253906 126.433594 1318.570312 124.652344 C 1318.789062 122.808594 1319.425781 118.445312 1320.476562 111.566406 C 1320.605469 110.582031 1320.667969 109.316406 1320.660156 107.769531 C 1320.511719 103.863281 1319.699219 101.859375 1318.222656 101.753906 Z M 1318.222656 101.753906 "/><g clip-rule="nonzero" clip-path="url(#f26bd213b4)"><path style=" stroke:none;fill-rule:nonzero;fill:#90a550;fill-opacity:1;" d="M 1155.832031 266.164062 C 1135.875 243.949219 1124.339844 224.882812 1121.222656 208.96875 C 1117.417969 183.980469 1119.507812 157.519531 1127.484375 129.585938 C 1134.195312 108.304688 1152.59375 86.046875 1182.671875 62.816406 C 1194.460938 63.425781 1203.972656 77.03125 1211.207031 103.632812 C 1217.503906 126.3125 1218.59375 142.804688 1214.476562 153.105469 C 1208.21875 172.730469 1199.988281 193.921875 1189.78125 216.675781 C 1188.730469 218.847656 1187.429688 225.304688 1185.875 236.054688 C 1185.378906 238.304688 1184.304688 241.378906 1182.652344 245.28125 C 1179.4375 253.519531 1173.035156 263.648438 1163.453125 275.667969 C 1161.574219 279.371094 1160.570312 282.375 1160.441406 284.671875 Z M 1155.832031 266.164062 "/></g><path style=" stroke:none;fill-rule:nonzero;fill:#a2b959;fill-opacity:0.506;" d="M 1178.003906 66.625 C 1172.722656 70.535156 1165.550781 76.898438 1156.488281 85.722656 C 1151.535156 90.742188 1147.15625 95.710938 1143.359375 100.632812 L 1138.089844 107.980469 C 1134.867188 112.855469 1132.222656 117.679688 1130.15625 122.457031 L 1127.484375 129.585938 C 1123.9375 142.003906 1121.554688 154.125 1120.335938 165.957031 C 1118.554688 184.65625 1119.300781 200.800781 1122.574219 214.390625 C 1122.785156 215.097656 1123.015625 215.816406 1123.257812 216.539062 C 1125.15625 215.007812 1126.894531 213.289062 1128.46875 211.382812 C 1131.421875 207.902344 1134.007812 203.761719 1136.21875 198.953125 L 1151.472656 150.503906 C 1152.347656 146.234375 1152.257812 136.441406 1151.199219 121.125 C 1151.300781 117.675781 1152.082031 113.84375 1153.550781 109.632812 C 1154.914062 105.535156 1156.539062 101.8125 1158.429688 98.453125 C 1167.617188 85.25 1173.589844 75.957031 1176.347656 70.566406 C 1177.074219 69.664062 1177.628906 68.351562 1178.003906 66.625 Z M 1178.003906 66.625 "/><g clip-rule="nonzero" clip-path="url(#1d3e82423e)"><path style=" stroke:none;fill-rule:nonzero;fill:#799039;fill-opacity:1;" d="M 1183.820312 62.917969 C 1183.640625 63.003906 1183.457031 63.097656 1183.265625 63.199219 C 1182.660156 88.152344 1181.804688 102.726562 1180.703125 106.925781 C 1176.675781 126.699219 1171.132812 142.527344 1164.066406 154.414062 C 1161.347656 163.398438 1159.59375 171.015625 1158.8125 177.273438 L 1154.367188 261.34375 C 1154.351562 261.746094 1154.128906 262.550781 1153.695312 263.761719 C 1154.394531 264.558594 1155.109375 265.359375 1155.832031 266.164062 L 1160.441406 284.671875 C 1160.804688 281.699219 1161.808594 278.695312 1163.453125 275.667969 C 1174.082031 262.246094 1180.820312 251.292969 1183.667969 242.800781 C 1184.957031 239.421875 1185.691406 237.171875 1185.875 236.054688 C 1187.253906 226.5 1188.4375 220.335938 1189.421875 217.558594 C 1197.449219 199.191406 1202.632812 186.738281 1204.964844 180.199219 C 1209.242188 168.660156 1211.695312 161.828125 1212.316406 159.707031 L 1215.65625 149.441406 L 1216.449219 145.320312 C 1216.847656 142.421875 1216.992188 139.214844 1216.878906 135.703125 C 1216.144531 126.386719 1215.394531 120.433594 1214.632812 117.835938 C 1212.847656 108.707031 1210.0625 98.898438 1206.277344 88.410156 C 1201.730469 78.226562 1198.878906 72.824219 1197.71875 72.203125 C 1193.609375 66.765625 1189.082031 63.6875 1184.144531 62.960938 Z M 1183.820312 62.917969 "/></g><g clip-rule="nonzero" clip-path="url(#2a29c0cda8)"><path style=" stroke:none;fill-rule:nonzero;fill:#60712c;fill-opacity:0.506;" d="M 1183.820312 62.917969 C 1183.023438 63.304688 1182.132812 63.8125 1181.152344 64.441406 C 1185.101562 67.308594 1188.621094 71.261719 1191.71875 76.296875 C 1193.960938 80.804688 1195.238281 85.640625 1195.546875 90.808594 C 1195.90625 94.050781 1195.644531 101.5625 1194.761719 113.332031 L 1196.46875 130.570312 L 1183.929688 176.929688 C 1174.992188 190.488281 1170.054688 199.078125 1169.117188 202.703125 L 1162.171875 251.835938 C 1161.621094 254.664062 1159.691406 260.175781 1156.378906 268.371094 L 1160.441406 284.671875 C 1160.804688 281.699219 1161.808594 278.695312 1163.453125 275.667969 C 1174.082031 262.246094 1180.820312 251.292969 1183.667969 242.800781 C 1184.957031 239.421875 1185.691406 237.171875 1185.875 236.054688 C 1187.253906 226.5 1188.4375 220.335938 1189.421875 217.558594 C 1197.449219 199.191406 1202.632812 186.738281 1204.964844 180.199219 C 1209.242188 168.660156 1211.695312 161.828125 1212.316406 159.707031 L 1215.65625 149.441406 L 1216.449219 145.320312 C 1216.847656 142.421875 1216.992188 139.214844 1216.878906 135.703125 C 1216.144531 126.386719 1215.394531 120.433594 1214.632812 117.835938 C 1212.847656 108.707031 1210.0625 98.898438 1206.277344 88.410156 C 1201.730469 78.226562 1198.878906 72.824219 1197.71875 72.203125 C 1193.609375 66.765625 1189.082031 63.6875 1184.144531 62.960938 Z M 1183.820312 62.917969 "/></g><path style=" stroke:none;fill-rule:nonzero;fill:#c7db8a;fill-opacity:1;" d="M 1153.746094 291.699219 C 1152.820312 265.3125 1152.171875 250.734375 1151.800781 247.957031 C 1151.792969 247.902344 1151.789062 247.847656 1151.785156 247.792969 C 1151.515625 242.011719 1151.402344 237.160156 1151.441406 233.234375 L 1151.441406 233.242188 C 1151.503906 220.929688 1152.417969 207.046875 1154.1875 191.59375 L 1154.1875 191.597656 C 1154.714844 186.898438 1155.839844 178.628906 1157.566406 166.789062 C 1158.160156 162.746094 1158.691406 159.898438 1159.167969 158.242188 L 1159.164062 158.25 C 1160.261719 154.335938 1161.339844 150.945312 1162.402344 148.078125 C 1162.40625 148.070312 1162.410156 148.0625 1162.414062 148.050781 L 1171.011719 125.863281 L 1170.980469 125.949219 C 1172.078125 122.652344 1173.277344 117.902344 1174.582031 111.703125 C 1174.796875 110.6875 1175.796875 110.039062 1176.816406 110.25 C 1177.835938 110.464844 1178.492188 111.457031 1178.277344 112.46875 C 1176.941406 118.808594 1175.707031 123.691406 1174.566406 127.125 C 1174.554688 127.152344 1174.546875 127.179688 1174.535156 127.210938 L 1165.933594 149.398438 L 1165.945312 149.371094 C 1164.917969 152.144531 1163.871094 155.441406 1162.796875 159.257812 C 1162.796875 159.261719 1162.796875 159.265625 1162.796875 159.265625 C 1162.367188 160.765625 1161.871094 163.449219 1161.300781 167.328125 C 1159.582031 179.125 1158.460938 187.355469 1157.9375 192.011719 L 1157.9375 192.015625 C 1156.183594 207.335938 1155.277344 221.085938 1155.214844 233.261719 C 1155.214844 233.265625 1155.214844 233.265625 1155.214844 233.269531 C 1155.175781 237.125 1155.289062 241.910156 1155.554688 247.621094 L 1155.539062 247.460938 C 1155.929688 250.359375 1156.589844 265.0625 1157.519531 291.566406 C 1157.554688 292.601562 1156.738281 293.46875 1155.699219 293.507812 C 1154.65625 293.542969 1153.78125 292.734375 1153.746094 291.699219 Z M 1153.746094 291.699219 "/><path style=" stroke:none;fill-rule:nonzero;fill:#c7db8a;fill-opacity:1;" d="M 1156.15625 288.113281 C 1156.480469 288.410156 1157.953125 289.132812 1161.222656 289.84375 C 1161.226562 289.847656 1161.230469 289.847656 1161.230469 289.847656 C 1160.992188 289.808594 1160.621094 290.023438 1160.53125 290.222656 C 1160.53125 290.21875 1160.546875 290.191406 1160.5625 290.121094 C 1160.578125 290.035156 1160.597656 289.910156 1160.605469 289.734375 L 1160.609375 289.972656 L 1159.722656 279.574219 C 1159.71875 279.53125 1159.71875 279.484375 1159.71875 279.441406 C 1159.566406 267.785156 1159.453125 261.746094 1159.390625 261.078125 C 1159.390625 261.070312 1159.390625 261.09375 1159.398438 261.128906 C 1159.386719 261.074219 1159.382812 261.015625 1159.378906 260.960938 L 1157.523438 230.914062 C 1157.523438 230.886719 1157.519531 230.859375 1157.519531 230.832031 C 1157.472656 228.320312 1157.449219 225.691406 1157.566406 222.976562 C 1157.789062 217.796875 1158.050781 209.226562 1158.230469 197.261719 L 1158.234375 197.359375 L 1157.628906 180.949219 C 1157.628906 180.925781 1157.628906 180.902344 1157.628906 180.878906 C 1157.628906 179.875 1157.492188 178.742188 1157.320312 177.34375 C 1157.117188 175.695312 1156.875 173.757812 1156.875 171.613281 C 1156.878906 170.296875 1156.96875 168.898438 1157.214844 167.417969 C 1157.382812 166.394531 1158.351562 165.703125 1159.378906 165.871094 C 1160.40625 166.035156 1161.105469 167 1160.9375 168.023438 C 1160.730469 169.277344 1160.652344 170.472656 1160.648438 171.613281 C 1160.648438 173.5 1160.859375 175.21875 1161.066406 176.886719 C 1161.230469 178.226562 1161.402344 179.601562 1161.402344 180.882812 L 1161.398438 180.8125 L 1162.003906 197.222656 C 1162.003906 197.253906 1162.003906 197.285156 1162.003906 197.316406 C 1161.820312 209.304688 1161.5625 217.910156 1161.335938 223.136719 C 1161.222656 225.734375 1161.246094 228.265625 1161.292969 230.761719 L 1161.289062 230.683594 L 1163.144531 260.730469 L 1163.128906 260.5625 C 1163.136719 260.625 1163.144531 260.679688 1163.144531 260.71875 C 1163.230469 261.589844 1163.34375 267.894531 1163.492188 279.394531 L 1163.484375 279.257812 L 1164.371094 289.65625 C 1164.378906 289.738281 1164.378906 289.816406 1164.375 289.898438 C 1164.359375 290.246094 1164.320312 290.589844 1164.246094 290.925781 C 1164.1875 291.199219 1164.101562 291.476562 1163.980469 291.746094 C 1163.390625 293.0625 1162.128906 293.785156 1160.632812 293.546875 C 1160.558594 293.535156 1160.484375 293.523438 1160.410156 293.507812 C 1157.222656 292.808594 1154.769531 291.941406 1153.601562 290.871094 C 1152.832031 290.167969 1152.785156 288.984375 1153.492188 288.222656 C 1154.199219 287.460938 1155.390625 287.414062 1156.15625 288.113281 Z M 1156.15625 288.113281 "/><path style=" stroke:none;fill-rule:nonzero;fill:#c7db8a;fill-opacity:1;" d="M 1160.722656 192.957031 C 1160.109375 195.257812 1159.675781 198.054688 1159.410156 201.351562 L 1159.414062 201.320312 C 1159.175781 205.179688 1158.613281 212.625 1157.730469 223.652344 L 1157.730469 223.628906 C 1157.554688 226.28125 1157.457031 228.65625 1157.445312 230.757812 C 1157.445312 230.765625 1157.445312 230.769531 1157.445312 230.773438 C 1157.402344 233.730469 1157.460938 236.816406 1157.617188 240.035156 L 1157.613281 239.992188 C 1158.34375 250.023438 1158.726562 256.050781 1158.761719 258.082031 L 1158.761719 258.078125 L 1158.996094 270.722656 L 1158.996094 270.667969 C 1159.101562 272.871094 1159.3125 275.28125 1159.625 277.902344 C 1159.746094 278.929688 1159.007812 279.863281 1157.972656 279.984375 C 1156.9375 280.105469 1156 279.371094 1155.875 278.34375 C 1155.554688 275.636719 1155.335938 273.136719 1155.226562 270.847656 C 1155.226562 270.832031 1155.226562 270.8125 1155.222656 270.792969 L 1154.988281 258.144531 L 1154.988281 258.140625 C 1154.957031 256.183594 1154.574219 250.222656 1153.851562 240.261719 C 1153.847656 240.246094 1153.847656 240.230469 1153.847656 240.214844 C 1153.6875 236.917969 1153.628906 233.753906 1153.671875 230.722656 L 1153.671875 230.738281 C 1153.683594 228.558594 1153.78125 226.105469 1153.964844 223.382812 C 1153.964844 223.371094 1153.964844 223.363281 1153.96875 223.355469 C 1154.851562 212.351562 1155.410156 204.929688 1155.648438 201.089844 C 1155.648438 201.078125 1155.648438 201.066406 1155.648438 201.054688 C 1155.929688 197.535156 1156.40625 194.515625 1157.074219 192 C 1157.339844 191 1158.375 190.402344 1159.378906 190.667969 C 1160.386719 190.929688 1160.988281 191.957031 1160.722656 192.957031 Z M 1160.722656 192.957031 "/><path style=" stroke:none;fill-rule:nonzero;fill:#c7db8a;fill-opacity:1;" d="M 1159.457031 218.816406 L 1159.679688 230.585938 C 1159.679688 230.609375 1159.679688 230.632812 1159.679688 230.65625 C 1159.480469 240.972656 1159.488281 248.359375 1159.699219 252.820312 C 1159.699219 252.824219 1159.703125 252.828125 1159.703125 252.828125 C 1159.90625 257.609375 1160.78125 265.160156 1162.324219 275.480469 C 1162.476562 276.503906 1161.765625 277.457031 1160.734375 277.609375 C 1159.703125 277.761719 1158.742188 277.054688 1158.589844 276.03125 C 1157.027344 265.582031 1156.140625 257.902344 1155.929688 252.988281 L 1155.933594 253 C 1155.714844 248.453125 1155.707031 240.980469 1155.90625 230.582031 L 1155.90625 230.65625 L 1155.683594 218.886719 C 1155.664062 217.851562 1156.492188 216.996094 1157.535156 216.976562 C 1158.578125 216.957031 1159.4375 217.78125 1159.457031 218.816406 Z M 1159.457031 218.816406 "/><path style=" stroke:none;fill-rule:nonzero;fill:#c7db8a;fill-opacity:1;" d="M 1159.578125 269.417969 C 1159.550781 269.496094 1159.535156 269.578125 1159.523438 269.65625 C 1159.519531 269.667969 1159.519531 269.679688 1159.515625 269.691406 C 1159.34375 270.796875 1159.226562 271.636719 1159.167969 272.21875 C 1159.167969 272.222656 1159.164062 272.230469 1159.164062 272.234375 C 1159.058594 273.214844 1158.988281 274.292969 1158.953125 275.464844 L 1158.957031 275.449219 C 1158.878906 279.527344 1158.984375 282.5625 1159.273438 284.5625 C 1159.417969 285.585938 1158.703125 286.535156 1157.667969 286.679688 C 1156.636719 286.828125 1155.683594 286.113281 1155.535156 285.089844 C 1155.222656 282.894531 1155.105469 279.65625 1155.183594 275.378906 C 1155.183594 275.375 1155.183594 275.371094 1155.183594 275.363281 C 1155.21875 274.085938 1155.292969 272.910156 1155.414062 271.828125 L 1155.414062 271.84375 C 1155.476562 271.195312 1155.605469 270.28125 1155.789062 269.109375 L 1155.785156 269.144531 C 1155.828125 268.84375 1155.894531 268.546875 1155.988281 268.257812 C 1156.3125 267.273438 1157.375 266.734375 1158.367188 267.054688 C 1159.359375 267.375 1159.898438 268.433594 1159.578125 269.417969 Z M 1159.578125 269.417969 "/><path style=" stroke:none;fill-rule:nonzero;fill:#c7db8a;fill-opacity:1;" d="M 1159.453125 267.640625 C 1159.0625 267.582031 1158.625 267.6875 1158.144531 267.953125 C 1157.601562 268.253906 1157.269531 268.742188 1157.144531 269.421875 C 1157.144531 269.425781 1157.140625 269.429688 1157.140625 269.4375 C 1156.996094 270.257812 1156.886719 270.980469 1156.816406 271.605469 C 1156.527344 271.769531 1156.28125 272.015625 1156.109375 272.328125 C 1154.96875 274.414062 1154.109375 277.429688 1153.53125 281.378906 C 1152.921875 284.8125 1152.738281 288.59375 1152.984375 292.71875 C 1152.984375 292.742188 1152.988281 292.769531 1152.988281 292.792969 C 1153.070312 293.59375 1153.203125 294.230469 1153.390625 294.703125 C 1153.773438 295.652344 1154.363281 296.183594 1155.164062 296.300781 C 1155.363281 296.332031 1155.574219 296.335938 1155.796875 296.3125 C 1155.929688 296.300781 1156.058594 296.277344 1156.1875 296.242188 C 1158.035156 295.777344 1159.757812 295.445312 1161.355469 295.246094 C 1161.378906 295.242188 1161.40625 295.238281 1161.429688 295.234375 C 1162.410156 295.074219 1163.105469 294.515625 1163.507812 293.558594 C 1163.53125 293.507812 1163.550781 293.453125 1163.566406 293.402344 C 1163.9375 292.25 1164.007812 290.613281 1163.777344 288.484375 C 1163.699219 287.710938 1163.53125 286.691406 1163.269531 285.429688 C 1163.261719 285.390625 1163.253906 285.351562 1163.242188 285.3125 C 1162.289062 281.804688 1161.734375 279.386719 1161.574219 278.054688 C 1161.574219 278.042969 1161.570312 278.03125 1161.570312 278.023438 C 1161.226562 275.515625 1161.039062 272.714844 1161.011719 269.617188 C 1161.007812 269.304688 1160.925781 268.996094 1160.773438 268.722656 C 1160.410156 268.074219 1159.972656 267.714844 1159.453125 267.640625 Z M 1159.453125 267.640625 "/><path style=" stroke:none;fill-rule:nonzero;fill:#c7db8a;fill-opacity:1;" d="M 1159 191.546875 C 1158.894531 186.375 1160.105469 180.226562 1162.628906 173.09375 L 1162.617188 173.136719 C 1165.039062 165.210938 1168.152344 158.402344 1171.960938 152.714844 C 1171.96875 152.703125 1171.976562 152.695312 1171.984375 152.683594 C 1179.867188 141.808594 1189.523438 133.773438 1200.957031 128.582031 C 1201.484375 128.34375 1202.105469 128.574219 1202.347656 129.097656 C 1202.585938 129.617188 1202.355469 130.234375 1201.828125 130.476562 C 1190.730469 135.515625 1181.347656 143.324219 1173.683594 153.898438 L 1173.703125 153.867188 C 1170.011719 159.386719 1166.984375 166.011719 1164.621094 173.742188 C 1164.613281 173.757812 1164.609375 173.769531 1164.605469 173.785156 C 1162.164062 180.679688 1160.992188 186.582031 1161.09375 191.503906 C 1161.105469 192.078125 1160.644531 192.550781 1160.066406 192.5625 C 1159.488281 192.574219 1159.011719 192.121094 1159 191.546875 Z M 1159 191.546875 "/><path style=" stroke:none;fill-rule:nonzero;fill:#c7db8a;fill-opacity:1;" d="M 1148.007812 113.882812 C 1147.980469 116.738281 1148.359375 120.035156 1149.148438 123.769531 C 1149.152344 123.785156 1149.15625 123.804688 1149.15625 123.820312 C 1149.429688 125.5 1151.292969 132.949219 1154.75 146.167969 C 1154.753906 146.179688 1154.753906 146.1875 1154.757812 146.199219 C 1155.519531 149.484375 1156.148438 152.78125 1156.640625 156.085938 L 1156.632812 156.042969 C 1157.539062 160.695312 1158.296875 171.597656 1158.902344 188.75 L 1158.898438 188.703125 C 1159.132812 191.601562 1159.519531 194.542969 1160.0625 197.527344 C 1160.164062 198.09375 1159.785156 198.632812 1159.214844 198.734375 C 1158.648438 198.835938 1158.101562 198.460938 1158 197.894531 C 1157.449219 194.84375 1157.050781 191.832031 1156.8125 188.867188 C 1156.8125 188.851562 1156.8125 188.835938 1156.808594 188.820312 C 1156.207031 171.777344 1155.464844 160.984375 1154.578125 156.4375 C 1154.574219 156.421875 1154.574219 156.40625 1154.570312 156.394531 C 1154.082031 153.140625 1153.464844 149.898438 1152.714844 146.664062 L 1152.722656 146.691406 C 1149.25 133.410156 1147.375 125.894531 1147.089844 124.148438 L 1147.101562 124.199219 C 1146.277344 120.3125 1145.882812 116.867188 1145.914062 113.863281 C 1145.917969 113.289062 1146.390625 112.828125 1146.96875 112.835938 C 1147.546875 112.839844 1148.011719 113.308594 1148.007812 113.882812 Z M 1148.007812 113.882812 "/><path style=" stroke:none;fill-rule:nonzero;fill:#c7db8a;fill-opacity:1;" d="M 1131.332031 147.957031 C 1131.609375 153.273438 1132.824219 158.691406 1134.980469 164.210938 L 1134.980469 164.214844 C 1135.929688 166.695312 1137.496094 170.179688 1139.675781 174.671875 L 1139.671875 174.667969 C 1140.390625 176.121094 1141.246094 177.792969 1142.238281 179.683594 L 1142.234375 179.679688 L 1149.300781 192.945312 C 1149.304688 192.949219 1149.304688 192.957031 1149.308594 192.960938 C 1150.390625 195.085938 1151.46875 197.375 1152.542969 199.832031 L 1152.542969 199.828125 C 1153.574219 202.140625 1154.394531 204.320312 1155.003906 206.363281 L 1154.980469 206.296875 C 1155.257812 207.035156 1155.914062 209.753906 1156.953125 214.457031 C 1157.078125 215.019531 1156.71875 215.570312 1156.15625 215.695312 C 1155.589844 215.816406 1155.03125 215.464844 1154.910156 214.902344 C 1153.890625 210.296875 1153.261719 207.667969 1153.019531 207.023438 C 1153.011719 207 1153.003906 206.976562 1152.996094 206.953125 C 1152.410156 204.996094 1151.621094 202.902344 1150.628906 200.667969 L 1150.625 200.664062 C 1149.566406 198.242188 1148.503906 195.988281 1147.441406 193.902344 L 1147.449219 193.917969 L 1140.386719 180.652344 L 1140.382812 180.648438 C 1139.378906 178.742188 1138.515625 177.054688 1137.792969 175.582031 L 1137.789062 175.578125 C 1135.582031 171.03125 1133.992188 167.488281 1133.023438 164.957031 L 1133.027344 164.960938 C 1130.792969 159.234375 1129.53125 153.605469 1129.242188 148.066406 C 1129.214844 147.492188 1129.65625 147.003906 1130.234375 146.972656 C 1130.8125 146.941406 1131.304688 147.382812 1131.332031 147.957031 Z M 1131.332031 147.957031 "/><path style=" stroke:none;fill-rule:nonzero;fill:#c7db8a;fill-opacity:1;" d="M 1157.574219 218.613281 C 1158.316406 211.132812 1162.769531 201.632812 1170.929688 190.117188 L 1170.933594 190.109375 C 1178.035156 180.226562 1183.453125 173.1875 1187.195312 168.988281 L 1187.496094 170.601562 C 1186.863281 170.273438 1186.71875 169.78125 1187.0625 169.125 C 1187.085938 169.082031 1187.109375 169.035156 1187.140625 168.988281 C 1187.800781 167.972656 1194.121094 161.644531 1206.105469 150.011719 C 1206.519531 149.609375 1207.179688 149.617188 1207.585938 150.027344 C 1207.988281 150.4375 1207.980469 151.097656 1207.570312 151.5 C 1195.699219 163.023438 1189.476562 169.230469 1188.902344 170.117188 C 1188.90625 170.109375 1188.910156 170.097656 1188.917969 170.085938 C 1189.21875 169.511719 1189.066406 169.070312 1188.464844 168.753906 C 1188.75 168.902344 1188.949219 169.175781 1189.007812 169.488281 C 1189.066406 169.804688 1188.976562 170.128906 1188.761719 170.367188 C 1185.070312 174.511719 1179.695312 181.496094 1172.636719 191.320312 L 1172.640625 191.3125 C 1164.691406 202.53125 1160.363281 211.699219 1159.65625 218.816406 C 1159.601562 219.386719 1159.089844 219.804688 1158.511719 219.75 C 1157.9375 219.691406 1157.515625 219.183594 1157.574219 218.613281 Z M 1157.574219 218.613281 "/><path style=" stroke:none;fill-rule:nonzero;fill:#c7db8a;fill-opacity:1;" d="M 1122.835938 189.585938 C 1123.539062 190.363281 1124.875 192.84375 1126.839844 197.03125 C 1126.84375 197.039062 1126.847656 197.042969 1126.847656 197.050781 C 1128.042969 199.746094 1128.773438 201.421875 1129.035156 202.070312 L 1129.03125 202.066406 C 1130.898438 206.648438 1132.375 210.382812 1133.472656 213.273438 L 1133.464844 213.257812 C 1133.871094 214.273438 1134.292969 215.277344 1134.726562 216.277344 L 1134.726562 216.269531 C 1136.34375 219.910156 1137.78125 222.777344 1139.039062 224.867188 C 1139.042969 224.875 1139.042969 224.878906 1139.046875 224.882812 C 1140.777344 227.875 1142.636719 230.683594 1144.636719 233.3125 C 1144.660156 233.34375 1144.683594 233.378906 1144.703125 233.414062 C 1145.042969 233.992188 1147.46875 236.800781 1151.976562 241.839844 C 1151.980469 241.847656 1151.988281 241.855469 1151.992188 241.863281 C 1152.960938 243.003906 1153.757812 244.015625 1154.382812 244.898438 L 1154.375 244.882812 C 1156.390625 247.621094 1158.261719 250.554688 1159.980469 253.675781 C 1160.261719 254.179688 1160.074219 254.8125 1159.566406 255.089844 C 1159.058594 255.363281 1158.421875 255.179688 1158.144531 254.675781 C 1156.46875 251.632812 1154.648438 248.777344 1152.683594 246.113281 C 1152.679688 246.109375 1152.679688 246.101562 1152.675781 246.097656 C 1152.082031 245.265625 1151.320312 244.300781 1150.390625 243.199219 L 1150.410156 243.222656 C 1145.808594 238.078125 1143.304688 235.160156 1142.894531 234.460938 L 1142.964844 234.566406 C 1140.914062 231.867188 1139.003906 228.984375 1137.230469 225.917969 L 1137.242188 225.933594 C 1135.941406 223.769531 1134.464844 220.828125 1132.808594 217.109375 L 1132.808594 217.105469 C 1132.363281 216.085938 1131.933594 215.0625 1131.519531 214.027344 C 1131.515625 214.019531 1131.515625 214.011719 1131.511719 214.007812 C 1130.421875 211.132812 1128.949219 207.410156 1127.09375 202.847656 L 1127.089844 202.84375 C 1126.835938 202.214844 1126.117188 200.566406 1124.933594 197.890625 L 1124.941406 197.910156 C 1123.066406 193.910156 1121.84375 191.601562 1121.28125 190.980469 C 1120.894531 190.554688 1120.929688 189.894531 1121.359375 189.511719 C 1121.785156 189.125 1122.449219 189.160156 1122.835938 189.585938 Z M 1122.835938 189.585938 "/><path style=" stroke:none;fill-rule:nonzero;fill:#c7db8a;fill-opacity:1;" d="M 1157.261719 256.328125 C 1158.015625 250.617188 1161.355469 242.066406 1167.28125 230.667969 C 1167.289062 230.652344 1167.300781 230.636719 1167.308594 230.625 C 1170.074219 225.882812 1175.597656 217.652344 1183.886719 205.9375 L 1183.847656 205.996094 L 1193.839844 189.710938 C 1193.847656 189.699219 1193.855469 189.683594 1193.863281 189.671875 C 1196.03125 186.476562 1198.613281 183 1201.605469 179.242188 C 1201.964844 178.792969 1202.621094 178.714844 1203.074219 179.070312 C 1203.527344 179.429688 1203.605469 180.082031 1203.246094 180.53125 C 1200.289062 184.25 1197.738281 187.683594 1195.601562 190.835938 L 1195.625 190.792969 L 1185.636719 207.078125 C 1185.625 207.097656 1185.613281 207.117188 1185.597656 207.132812 C 1177.347656 218.800781 1171.855469 226.976562 1169.117188 231.667969 L 1169.144531 231.621094 C 1163.328125 242.804688 1160.058594 251.128906 1159.335938 256.601562 C 1159.261719 257.171875 1158.734375 257.570312 1158.164062 257.496094 C 1157.589844 257.421875 1157.183594 256.898438 1157.261719 256.328125 Z M 1157.261719 256.328125 "/><path style=" stroke:none;fill-rule:nonzero;fill:#d4ee8c;fill-opacity:0.294;" d="M 1207.617188 110.148438 L 1207.542969 110.1875 C 1207.773438 123.441406 1206.898438 133.191406 1204.917969 139.441406 C 1204.117188 143.0625 1199.476562 153.34375 1190.988281 170.285156 C 1188.855469 181.179688 1186.289062 192.460938 1183.28125 204.128906 C 1177.714844 224.820312 1173.269531 240.015625 1169.945312 249.71875 L 1172.335938 245.429688 C 1170.488281 249.316406 1169.664062 251.410156 1169.863281 251.710938 C 1169.738281 252.613281 1170.164062 252.832031 1171.144531 252.367188 C 1171.523438 252.171875 1171.988281 251.859375 1172.535156 251.429688 C 1178.359375 241.183594 1182.640625 233.007812 1185.386719 226.902344 C 1186.644531 222.808594 1187.417969 219.585938 1187.707031 217.234375 C 1188.375 206.308594 1189.042969 199.699219 1189.710938 197.414062 L 1201.238281 169.15625 L 1203.230469 163.003906 L 1206.089844 152.539062 C 1208.699219 142.984375 1210.144531 133.769531 1210.421875 124.898438 C 1210.144531 114.445312 1209.210938 109.53125 1207.617188 110.148438 Z M 1207.617188 110.148438 "/><path style=" stroke:none;fill-rule:nonzero;fill:#d4ee8c;fill-opacity:0.294;" d="M 1197.003906 77.492188 L 1196.878906 77.566406 C 1196.324219 77.996094 1196.351562 79.027344 1196.96875 80.65625 C 1197.09375 81.019531 1197.351562 81.609375 1197.738281 82.429688 C 1198.753906 84.3125 1199.445312 85.621094 1199.816406 86.351562 C 1199.894531 86.476562 1200.300781 87.332031 1201.03125 88.917969 C 1201.414062 89.761719 1201.808594 90.726562 1202.21875 91.816406 C 1202.542969 92.730469 1202.765625 93.390625 1202.886719 93.800781 C 1203.582031 96.085938 1204.179688 98.121094 1204.671875 99.902344 C 1204.664062 100.246094 1204.710938 101.027344 1204.816406 102.246094 C 1204.914062 103.164062 1205.054688 103.921875 1205.242188 104.511719 C 1205.421875 105.085938 1205.65625 105.53125 1205.941406 105.835938 C 1206.183594 106.121094 1206.472656 106.183594 1206.804688 106.027344 C 1207.3125 105.683594 1207.585938 104.699219 1207.621094 103.070312 C 1207.570312 102.351562 1207.5 101.632812 1207.414062 100.917969 C 1207.390625 100.554688 1207.21875 99.492188 1206.886719 97.726562 C 1206.597656 96.320312 1206.234375 94.929688 1205.792969 93.554688 C 1205.261719 92.167969 1204.082031 88.851562 1202.257812 83.601562 C 1201.984375 82.855469 1201.554688 81.9375 1200.972656 80.847656 C 1199.410156 78.140625 1198.085938 77.023438 1197.003906 77.492188 Z M 1197.003906 77.492188 "/><path style=" stroke:none;fill-rule:nonzero;fill:#90a550;fill-opacity:1;" d="M 1171.117188 296.648438 C 1178.808594 272.351562 1187.859375 255.582031 1198.269531 246.335938 C 1215.085938 232.617188 1235.574219 222.554688 1259.730469 216.148438 C 1278.410156 211.726562 1302.929688 215.410156 1333.289062 227.199219 C 1338 236.074219 1332.101562 248.976562 1315.589844 265.902344 C 1301.570312 280.433594 1289.851562 288.449219 1280.425781 289.957031 C 1263.171875 293.980469 1243.890625 297.25 1222.589844 299.761719 C 1220.523438 299.945312 1215.175781 301.824219 1206.546875 305.398438 C 1204.664062 306.019531 1201.917969 306.582031 1198.308594 307.085938 C 1190.804688 308.34375 1180.511719 308.109375 1167.425781 306.375 C 1163.859375 306.625 1161.199219 307.207031 1159.445312 308.117188 Z M 1171.117188 296.648438 "/><path style=" stroke:none;fill-rule:nonzero;fill:#a2b959;fill-opacity:0.506;" d="M 1328.425781 225.457031 C 1323.222656 223.316406 1315.371094 220.867188 1304.875 218.113281 C 1298.996094 216.695312 1293.402344 215.675781 1288.097656 215.058594 L 1280.355469 214.429688 C 1275.339844 214.210938 1270.613281 214.394531 1266.171875 214.976562 L 1259.730469 216.148438 C 1248.992188 218.996094 1238.980469 222.566406 1229.695312 226.855469 C 1215.082031 233.742188 1203.46875 241.355469 1194.851562 249.695312 C 1194.417969 250.164062 1193.988281 250.644531 1193.5625 251.136719 C 1195.523438 251.851562 1197.554688 252.367188 1199.65625 252.683594 C 1203.523438 253.316406 1207.71875 253.390625 1212.242188 252.898438 L 1254.761719 242.820312 C 1258.304688 241.589844 1265.507812 237.234375 1276.375 229.753906 C 1278.96875 228.320312 1282.144531 227.210938 1285.902344 226.4375 C 1289.53125 225.640625 1293 225.195312 1296.308594 225.105469 C 1310.097656 226.03125 1319.589844 226.320312 1324.785156 225.976562 C 1325.773438 226.113281 1326.984375 225.9375 1328.425781 225.457031 Z M 1328.425781 225.457031 "/><path style=" stroke:none;fill-rule:nonzero;fill:#799039;fill-opacity:1;" d="M 1333.714844 228.082031 C 1333.574219 227.988281 1333.421875 227.894531 1333.265625 227.800781 C 1314.542969 238.285156 1303.386719 244.042969 1299.796875 245.074219 C 1283.40625 250.796875 1269.269531 253.679688 1257.382812 253.726562 C 1249.546875 255.671875 1243.144531 257.730469 1238.171875 259.898438 L 1174.039062 293.46875 C 1173.734375 293.632812 1173.042969 293.824219 1171.957031 294.039062 C 1171.675781 294.898438 1171.394531 295.769531 1171.117188 296.648438 L 1159.445312 308.117188 C 1161.804688 307.082031 1164.460938 306.5 1167.425781 306.375 C 1182.003906 308.257812 1193.058594 308.378906 1200.585938 306.742188 C 1203.652344 306.199219 1205.636719 305.753906 1206.546875 305.398438 C 1214.21875 302.222656 1219.296875 300.386719 1221.78125 299.886719 C 1238.882812 297.707031 1250.363281 296.035156 1256.21875 294.875 C 1266.628906 292.945312 1272.757812 291.746094 1274.601562 291.269531 L 1283.652344 289.214844 L 1287.050781 287.988281 C 1289.371094 287.007812 1291.804688 285.710938 1294.351562 284.089844 C 1300.921875 279.472656 1305 276.320312 1306.585938 274.625 C 1312.558594 269.324219 1318.59375 262.996094 1324.691406 255.640625 C 1330.234375 247.859375 1332.980469 243.414062 1332.933594 242.296875 C 1335.15625 236.914062 1335.453125 232.261719 1333.824219 228.335938 Z M 1333.714844 228.082031 "/><path style=" stroke:none;fill-rule:nonzero;fill:#60712c;fill-opacity:0.506;" d="M 1333.714844 228.082031 C 1333.078125 227.667969 1332.3125 227.242188 1331.421875 226.800781 C 1331.027344 230.9375 1329.648438 235.242188 1327.277344 239.707031 C 1324.925781 243.320312 1321.90625 246.367188 1318.21875 248.855469 C 1315.976562 250.539062 1310.308594 253.636719 1301.214844 258.144531 L 1289.210938 266.941406 L 1249.425781 278.089844 C 1235.484375 277.5 1226.96875 277.65625 1223.875 278.558594 L 1184.492188 295.003906 C 1182.160156 295.839844 1177.234375 296.84375 1169.722656 298.015625 L 1159.445312 308.117188 C 1161.804688 307.082031 1164.460938 306.5 1167.425781 306.375 C 1182.003906 308.257812 1193.058594 308.378906 1200.585938 306.742188 C 1203.652344 306.199219 1205.636719 305.753906 1206.546875 305.398438 C 1214.21875 302.222656 1219.296875 300.386719 1221.78125 299.886719 C 1238.882812 297.707031 1250.363281 296.035156 1256.21875 294.875 C 1266.628906 292.945312 1272.757812 291.746094 1274.601562 291.269531 L 1283.652344 289.214844 L 1287.050781 287.988281 C 1289.371094 287.007812 1291.804688 285.710938 1294.351562 284.089844 C 1300.921875 279.472656 1305 276.320312 1306.585938 274.625 C 1312.558594 269.324219 1318.59375 262.996094 1324.691406 255.640625 C 1330.234375 247.859375 1332.980469 243.414062 1332.933594 242.296875 C 1335.15625 236.914062 1335.453125 232.261719 1333.824219 228.335938 Z M 1333.714844 228.082031 "/><path style=" stroke:none;fill-rule:nonzero;fill:#bccf84;fill-opacity:1;" d="M 1151.316406 306.308594 C 1170.425781 294.078125 1180.929688 287.222656 1182.820312 285.730469 C 1182.855469 285.703125 1182.894531 285.675781 1182.933594 285.652344 C 1187.09375 282.925781 1190.632812 280.714844 1193.550781 279.023438 L 1193.546875 279.027344 C 1202.679688 273.683594 1213.351562 268.273438 1225.558594 262.796875 L 1225.554688 262.796875 C 1229.257812 261.125 1235.867188 258.324219 1245.382812 254.398438 L 1245.386719 254.398438 C 1248.632812 253.0625 1250.972656 252.203125 1252.40625 251.824219 L 1252.398438 251.828125 C 1255.773438 250.914062 1258.753906 250.21875 1261.339844 249.738281 C 1261.351562 249.734375 1261.359375 249.734375 1261.367188 249.734375 L 1281.546875 246.292969 L 1281.46875 246.308594 C 1284.386719 245.664062 1288.425781 244.460938 1293.582031 242.699219 C 1294.425781 242.414062 1295.34375 242.859375 1295.636719 243.695312 C 1295.925781 244.535156 1295.476562 245.445312 1294.632812 245.734375 C 1289.359375 247.535156 1285.207031 248.769531 1282.167969 249.441406 C 1282.144531 249.445312 1282.117188 249.449219 1282.089844 249.457031 L 1261.910156 252.894531 L 1261.9375 252.890625 C 1259.433594 253.355469 1256.539062 254.03125 1253.246094 254.921875 C 1253.242188 254.921875 1253.238281 254.921875 1253.238281 254.925781 C 1251.941406 255.265625 1249.738281 256.078125 1246.621094 257.363281 C 1237.140625 261.273438 1230.5625 264.058594 1226.890625 265.714844 L 1226.886719 265.71875 C 1214.785156 271.148438 1204.21875 276.503906 1195.183594 281.789062 L 1195.179688 281.792969 C 1192.308594 283.457031 1188.820312 285.632812 1184.710938 288.328125 L 1184.824219 288.246094 C 1182.851562 289.800781 1172.265625 296.71875 1153.0625 309.003906 C 1152.316406 309.484375 1151.316406 309.269531 1150.832031 308.523438 C 1150.351562 307.78125 1150.566406 306.789062 1151.316406 306.308594 Z M 1151.316406 306.308594 "/><path style=" stroke:none;fill-rule:nonzero;fill:#bccf84;fill-opacity:1;" d="M 1155.023438 306.5 C 1154.945312 306.867188 1155.058594 308.257812 1155.960938 310.953125 C 1155.960938 310.957031 1155.960938 310.960938 1155.960938 310.960938 C 1155.886719 310.773438 1155.566406 310.59375 1155.378906 310.617188 C 1155.382812 310.617188 1155.410156 310.613281 1155.464844 310.59375 C 1155.539062 310.570312 1155.640625 310.527344 1155.773438 310.457031 L 1155.597656 310.5625 L 1162.902344 305.363281 C 1162.933594 305.339844 1162.964844 305.320312 1162.996094 305.300781 C 1171.550781 300.085938 1175.972656 297.359375 1176.4375 297.019531 C 1176.441406 297.015625 1176.425781 297.027344 1176.402344 297.046875 C 1176.441406 297.015625 1176.480469 296.988281 1176.519531 296.960938 L 1197.933594 282.449219 C 1197.953125 282.433594 1197.972656 282.421875 1197.992188 282.410156 L 1197.984375 282.414062 L 1197.992188 282.410156 C 1199.828125 281.277344 1201.761719 280.105469 1203.820312 279.003906 C 1207.75 276.898438 1214.207031 273.335938 1223.136719 268.230469 L 1223.0625 268.273438 L 1234.9375 260.644531 C 1234.953125 260.636719 1234.972656 260.625 1234.988281 260.613281 C 1235.730469 260.175781 1236.507812 259.582031 1237.46875 258.839844 C 1238.597656 257.96875 1239.925781 256.945312 1241.515625 256.007812 C 1242.488281 255.433594 1243.5625 254.886719 1244.765625 254.417969 C 1245.59375 254.09375 1246.53125 254.496094 1246.859375 255.320312 C 1247.183594 256.144531 1246.777344 257.074219 1245.949219 257.398438 C 1244.929688 257.800781 1244.011719 258.265625 1243.164062 258.765625 C 1241.769531 259.589844 1240.589844 260.496094 1239.445312 261.375 C 1238.527344 262.082031 1237.585938 262.8125 1236.640625 263.371094 L 1236.691406 263.339844 L 1224.816406 270.964844 C 1224.792969 270.980469 1224.769531 270.996094 1224.746094 271.007812 C 1215.796875 276.125 1209.316406 279.703125 1205.351562 281.828125 C 1203.386719 282.882812 1201.519531 284.007812 1199.695312 285.132812 L 1199.703125 285.128906 L 1199.699219 285.128906 L 1199.753906 285.097656 L 1178.339844 299.609375 L 1178.453125 299.523438 C 1178.414062 299.558594 1178.375 299.585938 1178.347656 299.605469 C 1177.738281 300.046875 1173.125 302.890625 1164.683594 308.035156 L 1164.78125 307.96875 L 1157.476562 313.171875 C 1157.421875 313.210938 1157.363281 313.246094 1157.304688 313.28125 C 1157.039062 313.421875 1156.765625 313.542969 1156.484375 313.636719 C 1156.257812 313.710938 1156.015625 313.769531 1155.761719 313.800781 C 1154.53125 313.945312 1153.441406 313.34375 1152.964844 312.148438 C 1152.941406 312.085938 1152.917969 312.027344 1152.898438 311.964844 C 1152.015625 309.332031 1151.582031 307.160156 1151.863281 305.839844 C 1152.046875 304.972656 1152.902344 304.417969 1153.777344 304.601562 C 1154.648438 304.78125 1155.207031 305.632812 1155.023438 306.5 Z M 1155.023438 306.5 "/><path style=" stroke:none;fill-rule:nonzero;fill:#bccf84;fill-opacity:1;" d="M 1227.410156 268.164062 C 1225.441406 268.722656 1223.179688 269.628906 1220.625 270.882812 L 1220.652344 270.867188 C 1217.691406 272.386719 1211.9375 275.238281 1203.390625 279.417969 L 1203.410156 279.410156 C 1201.371094 280.441406 1199.574219 281.414062 1198.011719 282.324219 C 1198.007812 282.328125 1198.003906 282.328125 1198 282.332031 C 1195.796875 283.59375 1193.539062 284.988281 1191.222656 286.511719 L 1191.257812 286.488281 C 1184.15625 291.414062 1179.863281 294.335938 1178.378906 295.246094 L 1178.382812 295.246094 L 1169.128906 300.957031 L 1169.171875 300.929688 C 1167.589844 301.972656 1165.898438 303.183594 1164.09375 304.558594 C 1163.386719 305.097656 1162.375 304.964844 1161.832031 304.261719 C 1161.289062 303.5625 1161.421875 302.554688 1162.128906 302.015625 C 1163.988281 300.59375 1165.742188 299.34375 1167.386719 298.257812 C 1167.398438 298.25 1167.414062 298.242188 1167.425781 298.234375 L 1176.679688 292.523438 L 1176.679688 292.519531 C 1178.117188 291.640625 1182.359375 288.753906 1189.410156 283.859375 C 1189.417969 283.851562 1189.429688 283.84375 1189.441406 283.839844 C 1191.808594 282.277344 1194.125 280.851562 1196.386719 279.554688 L 1196.375 279.558594 C 1197.992188 278.613281 1199.851562 277.613281 1201.945312 276.550781 C 1201.953125 276.550781 1201.957031 276.546875 1201.964844 276.542969 C 1210.492188 272.367188 1216.226562 269.527344 1219.171875 268.019531 C 1219.179688 268.015625 1219.1875 268.011719 1219.195312 268.007812 C 1221.921875 266.667969 1224.363281 265.695312 1226.519531 265.082031 C 1227.375 264.835938 1228.269531 265.328125 1228.515625 266.179688 C 1228.761719 267.03125 1228.265625 267.917969 1227.410156 268.164062 Z M 1227.410156 268.164062 "/><path style=" stroke:none;fill-rule:nonzero;fill:#bccf84;fill-opacity:1;" d="M 1207.730469 278.5625 L 1199.121094 283.878906 C 1199.101562 283.890625 1199.085938 283.898438 1199.066406 283.910156 C 1191.351562 288.28125 1185.886719 291.523438 1182.679688 293.632812 L 1182.675781 293.636719 C 1179.230469 295.878906 1174.027344 299.824219 1167.066406 305.46875 C 1166.378906 306.027344 1165.359375 305.925781 1164.796875 305.242188 C 1164.234375 304.554688 1164.335938 303.542969 1165.027344 302.984375 C 1172.070312 297.269531 1177.363281 293.257812 1180.90625 290.953125 L 1180.898438 290.957031 C 1184.164062 288.808594 1189.6875 285.53125 1197.46875 281.125 L 1197.414062 281.15625 L 1206.023438 275.839844 C 1206.78125 275.371094 1207.777344 275.601562 1208.246094 276.355469 C 1208.71875 277.105469 1208.484375 278.09375 1207.730469 278.5625 Z M 1207.730469 278.5625 "/><path style=" stroke:none;fill-rule:nonzero;fill:#bccf84;fill-opacity:1;" d="M 1170.351562 300.808594 C 1170.28125 300.824219 1170.214844 300.847656 1170.148438 300.875 C 1170.140625 300.878906 1170.128906 300.882812 1170.121094 300.886719 C 1169.226562 301.238281 1168.554688 301.523438 1168.097656 301.734375 C 1168.09375 301.738281 1168.089844 301.738281 1168.085938 301.742188 C 1167.3125 302.089844 1166.484375 302.511719 1165.605469 303.003906 L 1165.617188 302.996094 C 1162.566406 304.726562 1160.367188 306.132812 1159.015625 307.21875 C 1158.320312 307.773438 1157.304688 307.664062 1156.746094 306.976562 C 1156.183594 306.285156 1156.292969 305.277344 1156.988281 304.722656 C 1158.476562 303.53125 1160.816406 302.027344 1164.015625 300.210938 C 1164.019531 300.207031 1164.023438 300.207031 1164.027344 300.203125 C 1164.988281 299.671875 1165.894531 299.210938 1166.746094 298.824219 L 1166.730469 298.832031 C 1167.242188 298.59375 1167.972656 298.285156 1168.921875 297.910156 L 1168.890625 297.917969 C 1169.132812 297.820312 1169.382812 297.738281 1169.636719 297.683594 C 1170.503906 297.484375 1171.371094 298.027344 1171.566406 298.890625 C 1171.765625 299.753906 1171.21875 300.613281 1170.351562 300.808594 Z M 1170.351562 300.808594 "/><path style=" stroke:none;fill-rule:nonzero;fill:#bccf84;fill-opacity:1;" d="M 1171.609375 299.9375 C 1171.480469 299.628906 1171.214844 299.355469 1170.808594 299.121094 C 1170.347656 298.855469 1169.839844 298.828125 1169.28125 299.035156 C 1169.277344 299.035156 1169.273438 299.035156 1169.269531 299.039062 C 1168.597656 299.292969 1168.015625 299.53125 1167.523438 299.75 C 1167.273438 299.613281 1166.984375 299.539062 1166.679688 299.550781 C 1164.636719 299.632812 1162.03125 300.328125 1158.855469 301.632812 C 1156.046875 302.691406 1153.171875 304.210938 1150.226562 306.199219 C 1150.210938 306.210938 1150.191406 306.222656 1150.175781 306.234375 C 1149.617188 306.644531 1149.203125 307.019531 1148.9375 307.363281 C 1148.402344 308.058594 1148.265625 308.722656 1148.53125 309.359375 C 1148.597656 309.515625 1148.6875 309.671875 1148.800781 309.828125 C 1148.867188 309.917969 1148.941406 310 1149.023438 310.078125 C 1150.175781 311.222656 1151.175781 312.335938 1152.027344 313.417969 C 1152.039062 313.433594 1152.050781 313.449219 1152.066406 313.464844 C 1152.613281 314.109375 1153.332031 314.371094 1154.214844 314.25 C 1154.261719 314.242188 1154.308594 314.234375 1154.355469 314.222656 C 1155.371094 313.992188 1156.613281 313.324219 1158.085938 312.222656 C 1158.625 311.828125 1159.304688 311.257812 1160.125 310.515625 C 1160.148438 310.492188 1160.175781 310.46875 1160.199219 310.445312 C 1162.375 308.214844 1163.921875 306.746094 1164.835938 306.046875 C 1164.84375 306.042969 1164.851562 306.035156 1164.859375 306.03125 C 1166.558594 304.683594 1168.550781 303.320312 1170.832031 301.941406 C 1171.0625 301.804688 1171.253906 301.609375 1171.390625 301.375 C 1171.707031 300.832031 1171.78125 300.351562 1171.609375 299.9375 Z M 1171.609375 299.9375 "/><path style=" stroke:none;fill-rule:nonzero;fill:#bccf84;fill-opacity:1;" d="M 1227.699219 266.289062 C 1231.476562 263.945312 1236.558594 262.136719 1242.9375 260.859375 L 1242.898438 260.867188 C 1249.824219 259.164062 1256.222656 258.457031 1262.097656 258.746094 C 1262.109375 258.746094 1262.121094 258.746094 1262.128906 258.75 C 1273.628906 259.742188 1283.800781 263.273438 1292.648438 269.347656 C 1293.054688 269.628906 1293.15625 270.183594 1292.875 270.585938 C 1292.59375 270.992188 1292.035156 271.09375 1291.628906 270.8125 C 1283.042969 264.917969 1273.15625 261.488281 1261.976562 260.519531 L 1262.007812 260.523438 C 1256.308594 260.242188 1250.082031 260.933594 1243.328125 262.59375 C 1243.316406 262.597656 1243.304688 262.601562 1243.289062 262.601562 C 1237.125 263.839844 1232.242188 265.570312 1228.648438 267.796875 C 1228.226562 268.058594 1227.675781 267.929688 1227.414062 267.511719 C 1227.152344 267.097656 1227.28125 266.546875 1227.699219 266.289062 Z M 1227.699219 266.289062 "/><path style=" stroke:none;fill-rule:nonzero;fill:#bccf84;fill-opacity:1;" d="M 1280.332031 224.253906 C 1278.207031 225.484375 1275.9375 227.203125 1273.519531 229.417969 C 1273.507812 229.425781 1273.496094 229.433594 1273.488281 229.445312 C 1272.363281 230.378906 1267.667969 235.003906 1259.402344 243.3125 C 1259.398438 243.320312 1259.390625 243.324219 1259.386719 243.332031 C 1257.289062 245.328125 1255.125 247.230469 1252.894531 249.039062 L 1252.925781 249.011719 C 1249.878906 251.710938 1242.148438 257.039062 1229.726562 264.992188 L 1229.757812 264.96875 C 1227.71875 266.410156 1225.710938 267.980469 1223.738281 269.679688 C 1223.367188 270.003906 1222.800781 269.964844 1222.476562 269.59375 C 1222.152344 269.222656 1222.191406 268.660156 1222.5625 268.339844 C 1224.582031 266.597656 1226.632812 264.992188 1228.722656 263.519531 C 1228.730469 263.511719 1228.742188 263.503906 1228.753906 263.496094 C 1241.097656 255.59375 1248.757812 250.324219 1251.730469 247.683594 C 1251.742188 247.675781 1251.753906 247.667969 1251.761719 247.660156 C 1253.957031 245.878906 1256.082031 244.007812 1258.144531 242.046875 L 1258.128906 242.0625 C 1266.433594 233.710938 1271.167969 229.050781 1272.335938 228.078125 L 1272.304688 228.105469 C 1274.820312 225.808594 1277.195312 224.011719 1279.429688 222.714844 C 1279.855469 222.46875 1280.40625 222.613281 1280.652344 223.035156 C 1280.902344 223.460938 1280.757812 224.003906 1280.332031 224.253906 Z M 1280.332031 224.253906 "/><path style=" stroke:none;fill-rule:nonzero;fill:#bccf84;fill-opacity:1;" d="M 1247.824219 227 C 1244.015625 229.53125 1240.539062 232.792969 1237.402344 236.78125 L 1237.398438 236.785156 C 1235.980469 238.5625 1234.085938 241.230469 1231.71875 244.792969 L 1231.71875 244.789062 C 1230.957031 245.945312 1230.09375 247.304688 1229.132812 248.855469 L 1229.132812 248.851562 L 1222.417969 259.820312 C 1222.414062 259.824219 1222.410156 259.828125 1222.40625 259.832031 C 1221.308594 261.550781 1220.089844 263.34375 1218.742188 265.203125 L 1218.746094 265.199219 C 1217.484375 266.964844 1216.234375 268.519531 1214.988281 269.859375 L 1215.027344 269.8125 C 1214.605469 270.339844 1212.878906 272.007812 1209.855469 274.824219 C 1209.496094 275.160156 1208.929688 275.144531 1208.589844 274.785156 C 1208.25 274.425781 1208.269531 273.863281 1208.628906 273.527344 C 1211.59375 270.769531 1213.261719 269.160156 1213.632812 268.699219 C 1213.644531 268.683594 1213.65625 268.667969 1213.671875 268.652344 C 1214.863281 267.367188 1216.066406 265.875 1217.285156 264.167969 L 1217.289062 264.164062 C 1218.613281 262.332031 1219.816406 260.570312 1220.894531 258.878906 L 1220.886719 258.894531 L 1227.605469 247.925781 L 1227.605469 247.921875 C 1228.578125 246.355469 1229.449219 244.988281 1230.21875 243.8125 L 1230.222656 243.808594 C 1232.621094 240.207031 1234.542969 237.496094 1235.992188 235.679688 L 1235.988281 235.683594 C 1239.246094 231.546875 1242.859375 228.160156 1246.832031 225.523438 C 1247.242188 225.25 1247.796875 225.359375 1248.074219 225.769531 C 1248.347656 226.175781 1248.238281 226.730469 1247.824219 227 Z M 1247.824219 227 "/><path style=" stroke:none;fill-rule:nonzero;fill:#bccf84;fill-opacity:1;" d="M 1207.054688 277.097656 C 1212.910156 274.363281 1221.886719 273.457031 1233.980469 274.371094 L 1233.984375 274.371094 C 1244.40625 275.226562 1251.988281 276.101562 1256.730469 276.996094 L 1255.671875 277.917969 C 1255.636719 277.3125 1255.9375 276.992188 1256.574219 276.957031 C 1256.617188 276.953125 1256.660156 276.953125 1256.707031 276.953125 C 1257.75 276.992188 1265.195312 278.835938 1279.050781 282.488281 C 1279.527344 282.617188 1279.8125 283.101562 1279.6875 283.578125 C 1279.558594 284.050781 1279.070312 284.335938 1278.589844 284.210938 C 1264.867188 280.589844 1257.550781 278.765625 1256.644531 278.734375 C 1256.652344 278.734375 1256.664062 278.734375 1256.675781 278.734375 C 1257.230469 278.703125 1257.492188 278.394531 1257.460938 277.816406 C 1257.476562 278.089844 1257.363281 278.355469 1257.15625 278.539062 C 1256.949219 278.71875 1256.667969 278.792969 1256.398438 278.742188 C 1251.714844 277.863281 1244.195312 276.996094 1233.839844 276.144531 L 1233.84375 276.144531 C 1222.066406 275.253906 1213.390625 276.109375 1207.816406 278.710938 C 1207.367188 278.917969 1206.832031 278.726562 1206.625 278.28125 C 1206.414062 277.835938 1206.605469 277.308594 1207.054688 277.097656 Z M 1207.054688 277.097656 "/><path style=" stroke:none;fill-rule:nonzero;fill:#bccf84;fill-opacity:1;" d="M 1213.3125 239.027344 C 1213.042969 239.882812 1211.792969 241.941406 1209.558594 245.210938 C 1209.554688 245.214844 1209.550781 245.222656 1209.546875 245.226562 C 1208.074219 247.28125 1207.15625 248.542969 1206.792969 249.019531 L 1206.792969 249.015625 C 1204.222656 252.382812 1202.105469 255.101562 1200.445312 257.164062 L 1200.457031 257.152344 C 1199.882812 257.894531 1199.324219 258.640625 1198.777344 259.398438 L 1198.78125 259.390625 C 1196.796875 262.167969 1195.304688 264.472656 1194.308594 266.304688 C 1194.304688 266.3125 1194.304688 266.316406 1194.300781 266.320312 C 1192.847656 268.890625 1191.585938 271.480469 1190.515625 274.089844 C 1190.5 274.121094 1190.484375 274.152344 1190.46875 274.183594 C 1190.191406 274.683594 1189.175781 277.683594 1187.417969 283.183594 C 1187.417969 283.191406 1187.414062 283.199219 1187.410156 283.207031 C 1186.988281 284.410156 1186.589844 285.4375 1186.214844 286.28125 L 1186.21875 286.265625 C 1185.078125 288.9375 1183.726562 291.585938 1182.171875 294.210938 C 1181.917969 294.636719 1181.371094 294.777344 1180.945312 294.527344 C 1180.519531 294.277344 1180.375 293.730469 1180.628906 293.308594 C 1182.144531 290.75 1183.460938 288.171875 1184.570312 285.570312 C 1184.574219 285.566406 1184.574219 285.5625 1184.578125 285.558594 C 1184.933594 284.757812 1185.3125 283.78125 1185.71875 282.621094 L 1185.710938 282.644531 C 1187.503906 277.035156 1188.566406 273.925781 1188.902344 273.324219 L 1188.855469 273.417969 C 1189.953125 270.738281 1191.25 268.082031 1192.738281 265.449219 L 1192.734375 265.460938 C 1193.765625 263.5625 1195.292969 261.195312 1197.320312 258.363281 L 1197.324219 258.355469 C 1197.878906 257.589844 1198.453125 256.824219 1199.035156 256.070312 C 1199.039062 256.0625 1199.042969 256.058594 1199.046875 256.054688 C 1200.695312 254 1202.804688 251.296875 1205.367188 247.941406 L 1205.367188 247.9375 C 1205.722656 247.480469 1206.628906 246.230469 1208.089844 244.195312 L 1208.078125 244.210938 C 1210.210938 241.089844 1211.386719 239.1875 1211.601562 238.5 C 1211.746094 238.03125 1212.246094 237.769531 1212.71875 237.914062 C 1213.191406 238.058594 1213.457031 238.558594 1213.3125 239.027344 Z M 1213.3125 239.027344 "/><path style=" stroke:none;fill-rule:nonzero;fill:#bccf84;fill-opacity:1;" d="M 1179.015625 293.386719 C 1183.570312 291.4375 1191.363281 290.128906 1202.386719 289.464844 C 1202.402344 289.464844 1202.417969 289.464844 1202.429688 289.464844 C 1207.148438 289.40625 1215.65625 289.839844 1227.949219 290.757812 L 1227.894531 290.757812 L 1244.3125 290.917969 C 1244.324219 290.917969 1244.339844 290.917969 1244.351562 290.921875 C 1247.667969 291.105469 1251.367188 291.464844 1255.457031 292.003906 C 1255.949219 292.070312 1256.292969 292.515625 1256.226562 293.003906 C 1256.164062 293.492188 1255.710938 293.832031 1255.222656 293.769531 C 1251.175781 293.234375 1247.519531 292.878906 1244.253906 292.695312 L 1244.292969 292.699219 L 1227.875 292.535156 C 1227.855469 292.535156 1227.835938 292.535156 1227.816406 292.53125 C 1215.574219 291.617188 1207.121094 291.1875 1202.453125 291.242188 L 1202.496094 291.242188 C 1191.679688 291.894531 1184.089844 293.152344 1179.726562 295.019531 C 1179.269531 295.214844 1178.746094 295.007812 1178.546875 294.554688 C 1178.351562 294.105469 1178.5625 293.582031 1179.015625 293.386719 Z M 1179.015625 293.386719 "/><path style=" stroke:none;fill-rule:nonzero;fill:#d4ee8c;fill-opacity:0.294;" d="M 1309.199219 266.136719 L 1309.136719 266.101562 C 1299.433594 272.074219 1291.839844 275.703125 1286.347656 276.996094 C 1283.320312 277.996094 1273.679688 279.109375 1257.433594 280.332031 C 1248.441406 283.546875 1238.972656 286.609375 1229.023438 289.523438 C 1211.28125 294.523438 1198.09375 297.929688 1189.460938 299.75 L 1193.679688 299.621094 C 1190 299.972656 1188.089844 300.289062 1187.953125 300.566406 C 1187.230469 300.867188 1187.253906 301.273438 1188.027344 301.789062 C 1188.339844 301.976562 1188.773438 302.179688 1189.328125 302.390625 C 1199.460938 302.15625 1207.382812 301.703125 1213.101562 301.03125 C 1216.679688 300.160156 1219.402344 299.3125 1221.269531 298.496094 C 1229.644531 294.199219 1234.824219 291.792969 1236.804688 291.277344 L 1262.757812 287.320312 L 1268.179688 286.082031 L 1277.171875 283.585938 C 1285.382812 281.308594 1292.832031 278.328125 1299.519531 274.644531 C 1307.128906 269.867188 1310.355469 267.03125 1309.199219 266.136719 Z M 1309.199219 266.136719 "/><path style=" stroke:none;fill-rule:nonzero;fill:#d4ee8c;fill-opacity:0.294;" d="M 1328.707031 244.089844 L 1328.597656 244.03125 C 1328.035156 243.8125 1327.285156 244.285156 1326.351562 245.449219 C 1326.140625 245.699219 1325.8125 246.144531 1325.375 246.789062 C 1324.429688 248.351562 1323.765625 249.429688 1323.386719 250.019531 C 1323.328125 250.132812 1322.875 250.804688 1322.019531 252.03125 C 1321.5625 252.679688 1321.023438 253.394531 1320.394531 254.167969 C 1319.859375 254.808594 1319.46875 255.257812 1319.222656 255.523438 C 1317.835938 257.035156 1316.589844 258.359375 1315.488281 259.5 C 1315.230469 259.644531 1314.675781 260.023438 1313.816406 260.632812 C 1313.179688 261.105469 1312.683594 261.539062 1312.328125 261.933594 C 1311.984375 262.320312 1311.757812 262.683594 1311.65625 263.027344 C 1311.550781 263.328125 1311.632812 263.566406 1311.894531 263.738281 C 1312.371094 263.960938 1313.21875 263.726562 1314.4375 263.042969 C 1314.949219 262.6875 1315.449219 262.324219 1315.9375 261.945312 C 1316.195312 261.773438 1316.90625 261.179688 1318.066406 260.167969 C 1318.980469 259.339844 1319.851562 258.464844 1320.675781 257.539062 C 1321.46875 256.542969 1323.40625 254.230469 1326.488281 250.601562 C 1326.921875 250.074219 1327.410156 249.359375 1327.964844 248.457031 C 1329.28125 246.128906 1329.527344 244.675781 1328.707031 244.089844 Z M 1328.707031 244.089844 "/><g style="fill:#6a895a;fill-opacity:1;"><g transform="translate(664.227813, 528.100559)"><path style="stroke:none" d="M 106.96875 -398.3125 C 106.96875 -401.851562 108.242188 -404.90625 110.796875 -407.46875 C 113.359375 -410.03125 116.414062 -411.3125 119.96875 -411.3125 C 123.507812 -411.3125 126.5625 -410.03125 129.125 -407.46875 C 131.6875 -404.90625 132.96875 -401.851562 132.96875 -398.3125 C 132.96875 -394.769531 131.6875 -391.71875 129.125 -389.15625 C 126.5625 -386.59375 123.507812 -385.3125 119.96875 -385.3125 C 116.414062 -385.3125 113.359375 -386.59375 110.796875 -389.15625 C 108.242188 -391.71875 106.96875 -394.769531 106.96875 -398.3125 Z M 223.984375 -398.3125 C 223.984375 -401.851562 225.257812 -404.90625 227.8125 -407.46875 C 230.375 -410.03125 233.429688 -411.3125 236.984375 -411.3125 C 240.523438 -411.3125 243.578125 -410.03125 246.140625 -407.46875 C 248.703125 -404.90625 249.984375 -401.851562 249.984375 -398.3125 C 249.984375 -394.769531 248.800781 -391.71875 246.4375 -389.15625 C 244.070312 -386.59375 240.921875 -385.3125 236.984375 -385.3125 C 233.429688 -385.3125 230.375 -386.59375 227.8125 -389.15625 C 225.257812 -391.71875 223.984375 -394.769531 223.984375 -398.3125 Z M 203.890625 -331.53125 L 350.4375 -331.53125 L 350.4375 -161.921875 C 350.4375 -133.554688 345.609375 -108.632812 335.953125 -87.15625 C 326.304688 -65.6875 313.207031 -47.757812 296.65625 -33.375 C 280.113281 -19 261.597656 -8.265625 241.109375 -1.171875 C 220.628906 5.910156 199.75 9.453125 178.46875 9.453125 C 156.800781 9.453125 135.722656 5.910156 115.234375 -1.171875 C 94.753906 -8.265625 76.238281 -19 59.6875 -33.375 C 43.132812 -47.757812 30.03125 -65.6875 20.375 -87.15625 C 10.726562 -108.632812 5.90625 -133.554688 5.90625 -161.921875 L 5.90625 -331.53125 L 152.46875 -331.53125 L 152.46875 -167.828125 C 152.46875 -157.585938 155.222656 -149.90625 160.734375 -144.78125 C 166.253906 -139.664062 172.164062 -137.109375 178.46875 -137.109375 C 184.769531 -137.109375 190.582031 -139.664062 195.90625 -144.78125 C 201.226562 -149.90625 203.890625 -157.585938 203.890625 -167.828125 Z M 203.890625 -331.53125 "/></g></g><g style="fill:#78a64b;fill-opacity:1;"><g transform="translate(952.336286, 693.969394)"><path style="stroke:none" d="M 160.75 0 C 130.40625 0 103.507812 -5.613281 80.0625 -16.84375 C 56.625 -28.070312 38.304688 -44.914062 25.109375 -67.375 C 11.910156 -89.832031 5.3125 -118 5.3125 -151.875 L 5.3125 -414.265625 L 150.703125 -414.265625 L 150.703125 -331.53125 L 251.75 -331.53125 L 251.75 -194.421875 L 150.703125 -194.421875 L 150.703125 -145.375 C 150.703125 -140.257812 153.257812 -137.703125 158.375 -137.703125 L 251.75 -137.703125 L 251.75 0 Z M 160.75 0 "/></g></g></g></svg>